<svg width="100" height="100" viewBox="0 0 100 100" fill="none" xmlns="http://www.w3.org/2000/svg">
<path d="M57.21 69.13C65.61 69.07 74.01 69.1 82.46 69.1C81.72 66.21 57.81 10.99 55.51 7.01V39.24C55.51 48.35 55.5 57.46 55.52 66.57C55.52 67.76 55.14 69.15 57.21 69.13ZM60.42 71.87C59.26 71.86 58.07 71.77 57.72 73.24C57.18 75.47 55.94 77.52 55.83 79.96H77.31C76.71 78.1 76 76.44 75.66 74.71C75.2 72.35 73.96 71.69 71.63 71.82C67.89 72.03 64.16 71.89 60.42 71.87ZM46.89 79.6C47.39 76.5 47.43 11.07 46.88 6.93C35.04 29.71 23.48 51.96 11.63 74.74C24.18 73.88 35.97 73.72 46.89 79.6ZM56.25 82.89C53.87 82.93 52.97 82.41 52.75 80.54V61.84C52.79 44.68 52.76 27.52 52.76 10.37C52.76 9.57 52.74 8.78 52.76 7.98C52.79 6.97 52.65 6.2 51.31 6.26C50.17 6.31 50.06 6.97 50.06 7.83L50.05 10.22C50.05 32.86 50.06 55.5 50.02 78.14L49.98 80.12C49.98 80.12 50.14 82.82 47.8 82.83H47.78C41.51 82.61 35.24 83.03 28.97 82.37C23.28 81.77 17.79 80.32 11.82 78.94C14.4 84.1 17.07 88.56 20.89 92.25C21.93 93.26 22.99 93.76 24.49 93.76C43.27 93.72 62.06 93.72 80.84 93.73C82.01 93.73 83.02 93.7 83.63 92.36C85.04 89.3 86.61 86.3 88.36 82.81C77.19 82.82 66.71 82.7 56.25 82.89Z" fill="black"/>
</svg>
