<svg width="60" height="60" viewBox="0 0 60 60" fill="none" xmlns="http://www.w3.org/2000/svg">
<g clip-path="url(#clip0_50_62)">
<path d="M59.9793 29.9414C59.9793 32.0508 58.4168 33.7031 56.6459 33.7031H53.3126L53.3855 52.4766C53.3855 52.793 53.3647 53.1094 53.3334 53.4258V55.3242C53.3334 57.9141 51.4688 60.0117 49.1667 60.0117H47.5001C47.3855 60.0117 47.2709 60.0117 47.1563 60C47.0105 60.0117 46.8647 60.0117 46.7188 60.0117L43.3334 60H40.8334C38.5313 60 36.6667 57.9023 36.6667 55.3125V52.5V45C36.6667 42.9258 35.1772 41.25 33.3334 41.25H26.6667C24.823 41.25 23.3334 42.9258 23.3334 45V52.5V55.3125C23.3334 57.9023 21.4688 60 19.1667 60H16.6667H13.3438C13.1876 60 13.0313 59.9883 12.8751 59.9766C12.7501 59.9883 12.6251 60 12.5001 60H10.8334C8.53133 60 6.66675 57.9023 6.66675 55.3125V42.1875C6.66675 42.082 6.66675 41.9648 6.67717 41.8594V33.6914H3.34383C1.46883 33.6914 0.010498 32.0508 0.010498 29.9297C0.010498 28.875 0.322998 27.9375 1.05216 27.1172L27.7501 0.9375C28.4792 0.117188 29.3126 0 30.0417 0C30.7709 0 31.6042 0.234375 32.2292 0.820313L58.8334 27.1289C59.6668 27.9492 60.0834 28.8867 59.9793 29.9414Z" fill="#0F2F23"/>
</g>
<defs>
<clipPath id="clip0_50_62">
<rect width="60" height="60" fill="white"/>
</clipPath>
</defs>
</svg>
