<svg width="18" height="18" viewBox="0 0 18 18" fill="none" xmlns="http://www.w3.org/2000/svg">
<g clip-path="url(#clip0_80_610)">
<path d="M18 9C18 4.02891 13.9711 0 9 0C4.02891 0 0 4.02891 0 9C0 13.2188 2.90742 16.7625 6.82734 17.7363V11.7492H4.97109V9H6.82734V7.81523C6.82734 4.75313 8.2125 3.33281 11.2219 3.33281C11.7914 3.33281 12.7758 3.44531 13.1801 3.55781V6.04688C12.9691 6.02578 12.6 6.01172 12.1395 6.01172C10.6629 6.01172 10.0934 6.5707 10.0934 8.02266V9H13.0324L12.5262 11.7492H10.0898V17.9332C14.5477 17.3953 18 13.602 18 9Z" fill="currentColor"/>
</g>
<defs>
<clipPath id="clip0_80_610">
<rect width="18" height="18" fill="white"/>
</clipPath>
</defs>
</svg>
