<svg width="60" height="60" viewBox="0 0 60 60" fill="none" xmlns="http://www.w3.org/2000/svg">
<g clip-path="url(#clip0_50_70)">
<path d="M33.0104 2.10938C32.4583 0.820312 31.2916 0 30.0104 0C28.7291 0 27.5729 0.820312 27.0104 2.10938L20.3124 17.6133L5.35411 20.0977C4.10411 20.3086 3.06244 21.293 2.67702 22.6406C2.29161 23.9883 2.60411 25.4766 3.49994 26.4727L14.3541 38.5547L11.7916 55.6289C11.5833 57.0352 12.1041 58.4648 13.1354 59.2969C14.1666 60.1289 15.5312 60.2344 16.6562 59.5664L30.0208 51.5391L43.3854 59.5664C44.5104 60.2344 45.8749 60.1406 46.9062 59.2969C47.9374 58.4531 48.4583 57.0352 48.2499 55.6289L45.677 38.5547L56.5312 26.4727C57.427 25.4766 57.7499 23.9883 57.3541 22.6406C56.9583 21.293 55.927 20.3086 54.677 20.0977L39.7083 17.6133L33.0104 2.10938Z" fill="#0F2F2A"/>
</g>
<defs>
<clipPath id="clip0_50_70">
<rect width="60" height="60" fill="white"/>
</clipPath>
</defs>
</svg>
