<svg width="18" height="18" viewBox="0 0 18 18" fill="none" xmlns="http://www.w3.org/2000/svg">
<g clip-path="url(#clip0_80_612)">
<path d="M9.00404 4.95702C6.44868 4.95702 4.38752 6.76053 4.38752 8.99647C4.38752 11.2324 6.44868 13.0359 9.00404 13.0359C11.5594 13.0359 13.6206 11.2324 13.6206 8.99647C13.6206 6.76053 11.5594 4.95702 9.00404 4.95702ZM9.00404 11.6226C7.3527 11.6226 6.0027 10.4449 6.0027 8.99647C6.0027 7.54803 7.34868 6.3703 9.00404 6.3703C10.6594 6.3703 12.0054 7.54803 12.0054 8.99647C12.0054 10.4449 10.6554 11.6226 9.00404 11.6226ZM14.8862 4.79178C14.8862 5.31561 14.404 5.73397 13.8094 5.73397C13.2107 5.73397 12.7326 5.3121 12.7326 4.79178C12.7326 4.27147 13.2148 3.8496 13.8094 3.8496C14.404 3.8496 14.8862 4.27147 14.8862 4.79178ZM17.9438 5.74803C17.8755 4.48593 17.546 3.36796 16.4893 2.44686C15.4366 1.52577 14.159 1.23749 12.7165 1.17421C11.2299 1.10038 6.77413 1.10038 5.28752 1.17421C3.84913 1.23397 2.57145 1.52225 1.51475 2.44335C0.458058 3.36444 0.132612 4.48241 0.0602905 5.74452C-0.0240845 7.0453 -0.0240845 10.9441 0.0602905 12.2449C0.128594 13.507 0.458058 14.625 1.51475 15.5461C2.57145 16.4672 3.84511 16.7555 5.28752 16.8187C6.77413 16.8926 11.2299 16.8926 12.7165 16.8187C14.159 16.759 15.4366 16.4707 16.4893 15.5461C17.542 14.625 17.8715 13.507 17.9438 12.2449C18.0281 10.9441 18.0281 7.04882 17.9438 5.74803ZM16.0232 13.6406C15.7098 14.3297 15.1031 14.8605 14.3116 15.1383C13.1264 15.5496 10.3139 15.4547 9.00404 15.4547C7.69422 15.4547 4.8777 15.5461 3.69645 15.1383C2.90895 14.864 2.30225 14.3332 1.98484 13.6406C1.51475 12.6035 1.62324 10.1426 1.62324 8.99647C1.62324 7.85038 1.51877 5.38593 1.98484 4.35233C2.29824 3.66327 2.90493 3.13241 3.69645 2.85468C4.88172 2.44335 7.69422 2.53827 9.00404 2.53827C10.3139 2.53827 13.1304 2.44686 14.3116 2.85468C15.0991 3.12889 15.7058 3.65975 16.0232 4.35233C16.4933 5.38944 16.3848 7.85038 16.3848 8.99647C16.3848 10.1426 16.4933 12.607 16.0232 13.6406Z" fill="currentColor"/>
</g>
<defs>
<clipPath id="clip0_80_612">
<rect width="18" height="18" fill="white"/>
</clipPath>
</defs>
</svg>
