<svg width="25" height="25" viewBox="0 0 25 25" fill="none" xmlns="http://www.w3.org/2000/svg">
<g clip-path="url(#clip0_82_186)">
<path d="M12.5054 6.88477C8.95626 6.88477 6.09354 9.38965 6.09354 12.4951C6.09354 15.6006 8.95626 18.1055 12.5054 18.1055C16.0545 18.1055 18.9172 15.6006 18.9172 12.4951C18.9172 9.38965 16.0545 6.88477 12.5054 6.88477ZM12.5054 16.1426C10.2118 16.1426 8.33684 14.5068 8.33684 12.4951C8.33684 10.4834 10.2063 8.84766 12.5054 8.84766C14.8045 8.84766 16.6739 10.4834 16.6739 12.4951C16.6739 14.5068 14.7989 16.1426 12.5054 16.1426ZM20.675 6.65527C20.675 7.38281 20.0054 7.96387 19.1795 7.96387C18.348 7.96387 17.6839 7.37793 17.6839 6.65527C17.6839 5.93262 18.3536 5.34668 19.1795 5.34668C20.0054 5.34668 20.675 5.93262 20.675 6.65527ZM24.9217 7.9834C24.8268 6.23047 24.3692 4.67773 22.9016 3.39844C21.4395 2.11914 19.665 1.71875 17.6616 1.63086C15.5969 1.52832 9.40827 1.52832 7.34354 1.63086C5.34577 1.71387 3.57122 2.11426 2.10359 3.39355C0.635952 4.67285 0.183943 6.22559 0.0834961 7.97852C-0.0336914 9.78516 -0.0336914 15.2002 0.0834961 17.0068C0.178362 18.7598 0.635952 20.3125 2.10359 21.5918C3.57122 22.8711 5.34019 23.2715 7.34354 23.3594C9.40827 23.4619 15.5969 23.4619 17.6616 23.3594C19.665 23.2764 21.4395 22.876 22.9016 21.5918C24.3636 20.3125 24.8212 18.7598 24.9217 17.0068C25.0389 15.2002 25.0389 9.79004 24.9217 7.9834ZM22.2543 18.9453C21.819 19.9023 20.9764 20.6396 19.877 21.0254C18.2308 21.5967 14.3246 21.4648 12.5054 21.4648C10.6862 21.4648 6.77434 21.5918 5.13372 21.0254C4.03997 20.6445 3.19734 19.9072 2.75649 18.9453C2.10359 17.5049 2.25426 14.0869 2.25426 12.4951C2.25426 10.9033 2.10917 7.48047 2.75649 6.04492C3.19176 5.08789 4.03439 4.35059 5.13372 3.96484C6.77992 3.39355 10.6862 3.52539 12.5054 3.52539C14.3246 3.52539 18.2364 3.39844 19.877 3.96484C20.9708 4.3457 21.8134 5.08301 22.2543 6.04492C22.9072 7.48535 22.7565 10.9033 22.7565 12.4951C22.7565 14.0869 22.9072 17.5098 22.2543 18.9453Z" fill="currentColor"/>
</g>
<defs>
<clipPath id="clip0_82_186">
<rect width="25" height="25" fill="white"/>
</clipPath>
</defs>
</svg>
