<svg width="60" height="60" viewBox="0 0 60 60" fill="none" xmlns="http://www.w3.org/2000/svg">
<g clip-path="url(#clip0_50_68)">
<path d="M32.4094 5.66024L33.5625 4.04305C34.0687 3.32821 34.8094 3.0118 35.5219 3.00008C36.1969 3.00008 36.8625 3.30477 37.3875 3.91414C39.2344 6.05868 41.1187 8.97664 42.5437 12.1876C43.9688 15.3751 45 19.0079 45 22.5235C45 32.9063 38.3156 41.2501 30 41.2501C21.6 41.2501 15 32.8946 15 22.5235C15 18.1524 16.5 13.922 18.45 10.2774C20.4094 6.60946 22.9031 3.36336 25.0969 0.878988C25.6313 0.269613 26.3156 -0.0233561 27 8.13801e-05C28.3219 0.0352376 29.2313 1.33602 30.0656 2.53133C30.2531 2.80086 30.4406 3.07039 30.6281 3.31649L32.4094 5.64852V5.66024ZM36 28.1485C36 23.8712 32.5312 19.5938 30.8625 17.7891C30.3563 17.2384 29.6344 17.2384 29.1281 17.7891C27.4688 19.5821 24 23.8595 24 28.1485C24 32.2852 26.6906 35.6485 30 35.6485C33.3094 35.6485 36 32.2852 36 28.1485ZM3 33.7501C3 31.6759 4.34062 30.0001 6 30.0001H9C10.6594 30.0001 12 31.6759 12 33.7501C12 35.8243 10.6594 37.5001 9 37.5001V45.0001H51V37.5001C49.3406 37.5001 48 35.8243 48 33.7501C48 31.6759 49.3406 30.0001 51 30.0001H54C55.6594 30.0001 57 31.6759 57 33.7501V45.0001C58.6594 45.0001 60 46.6759 60 48.7501V56.2501C60 58.3243 58.6594 60.0001 57 60.0001H3C1.34062 60.0001 0 58.3243 0 56.2501V48.7501C0 46.6759 1.34062 45.0001 3 45.0001V33.7501ZM30 56.2501C30.7956 56.2501 31.5587 55.855 32.1213 55.1517C32.6839 54.4485 33 53.4946 33 52.5001C33 51.5055 32.6839 50.5517 32.1213 49.8484C31.5587 49.1452 30.7956 48.7501 30 48.7501C29.2044 48.7501 28.4413 49.1452 27.8787 49.8484C27.3161 50.5517 27 51.5055 27 52.5001C27 53.4946 27.3161 54.4485 27.8787 55.1517C28.4413 55.855 29.2044 56.2501 30 56.2501ZM45 52.5001C45 51.5055 44.6839 50.5517 44.1213 49.8484C43.5587 49.1452 42.7957 48.7501 42 48.7501C41.2043 48.7501 40.4413 49.1452 39.8787 49.8484C39.3161 50.5517 39 51.5055 39 52.5001C39 53.4946 39.3161 54.4485 39.8787 55.1517C40.4413 55.855 41.2043 56.2501 42 56.2501C42.7957 56.2501 43.5587 55.855 44.1213 55.1517C44.6839 54.4485 45 53.4946 45 52.5001ZM18 56.2501C18.7956 56.2501 19.5587 55.855 20.1213 55.1517C20.6839 54.4485 21 53.4946 21 52.5001C21 51.5055 20.6839 50.5517 20.1213 49.8484C19.5587 49.1452 18.7956 48.7501 18 48.7501C17.2044 48.7501 16.4413 49.1452 15.8787 49.8484C15.3161 50.5517 15 51.5055 15 52.5001C15 53.4946 15.3161 54.4485 15.8787 55.1517C16.4413 55.855 17.2044 56.2501 18 56.2501Z" fill="#0F2F2A"/>
</g>
<defs>
<clipPath id="clip0_50_68">
<rect width="60" height="60" fill="white"/>
</clipPath>
</defs>
</svg>
