<svg width="60" height="60" viewBox="0 0 60 60" fill="none" xmlns="http://www.w3.org/2000/svg">
<g clip-path="url(#clip0_50_66)">
<path d="M11.25 9.05859C11.25 8.20312 11.9414 7.5 12.8086 7.5C13.2188 7.5 13.6172 7.66406 13.9102 7.95703L15.6563 9.70312C15.2344 10.7578 15 11.918 15 13.125C15 15.457 15.8438 17.5781 17.25 19.2188C16.6289 20.2969 16.7812 21.6914 17.6953 22.6172C18.7969 23.7188 20.5781 23.7188 21.668 22.6172L33.8672 10.4297C34.9688 9.32812 34.9688 7.54688 33.8672 6.45703C32.9414 5.53125 31.5469 5.39062 30.4688 6.01172C28.8281 4.59375 26.707 3.75 24.375 3.75C23.168 3.75 22.0078 3.98438 20.9531 4.39453L19.207 2.64844C17.5078 0.949219 15.1992 0 12.8086 0C7.80469 0 3.75 4.05469 3.75 9.05859V30C1.67578 30 0 31.6758 0 33.75C0 35.8242 1.67578 37.5 3.75 37.5H56.25C58.3242 37.5 60 35.8242 60 33.75C60 31.6758 58.3242 30 56.25 30H11.25V9.05859ZM3.75 41.25V43.125C3.75 46.4531 5.20312 49.4531 7.5 51.5156V56.25C7.5 58.3242 9.17578 60 11.25 60C13.3242 60 15 58.3242 15 56.25V54.375H45V56.25C45 58.3242 46.6758 60 48.75 60C50.8242 60 52.5 58.3242 52.5 56.25V51.5156C54.7969 49.4531 56.25 46.4648 56.25 43.125V41.25H3.75Z" fill="#0F2F2A"/>
</g>
<defs>
<clipPath id="clip0_50_66">
<rect width="60" height="60" fill="white"/>
</clipPath>
</defs>
</svg>
