<svg width="145" height="145" viewBox="0 0 145 145" fill="none" xmlns="http://www.w3.org/2000/svg">
<g clip-path="url(#clip0_5_6)">
<path d="M57.7545 145C63.3888 140.177 68.1836 134.941 69.359 127.715C69.9187 124.285 69.6948 120.871 69.5829 117.44C69.5456 116.231 68.9672 115.402 67.7172 114.805C61.6351 111.773 55.7582 108.259 48.1835 108.922C53.6313 105.078 60.0679 105.906 66.6724 106.072C64.0045 98.6144 60.5343 91.7701 55.9447 85.5058C53.0716 81.5948 48.3514 80.5673 43.0529 81.5119C36.8028 82.6223 30.4781 83.0863 24.2468 81.2136C22.4744 80.6833 20.7766 80.0867 18.5751 78.5952C26.5975 80.269 33.1088 78.4626 39.4148 75.6454C42.9782 74.071 46.523 72.3972 50.6649 72.5132C52.6798 72.5795 52.3253 71.3697 52.3626 70.2594C52.4932 64.1774 52.9597 58.1451 56.2246 52.61C56.4485 52.2123 56.6724 51.8145 56.9149 51.4334C59.9933 46.8263 59.956 46.8429 56.3179 42.4678C52.8477 38.2751 48.482 35.1264 42.8849 33.2371C45.4409 32.7897 46.4857 32.9222 49.8253 33.8669C55.1425 35.3749 59.7508 37.9768 63.6873 41.4238C65.2918 42.8324 66.0568 42.5673 67.456 41.2415C73.6315 35.4246 75.5718 28.2323 76.3553 20.6091C76.43 19.9628 76.43 19.2999 76.5233 18.0736C78.1837 21.7526 78.0718 25.1002 78.1651 28.3649C78.2584 31.8948 77.8852 35.3915 76.6352 38.8219C75.4225 42.1198 73.6315 45.1028 71.6538 48.0527C69.7508 50.9196 67.1389 53.5215 66.3926 57.7805C76.8031 52.2951 87.5868 53.8861 98.1279 53.5049C108.128 53.1403 110.031 52.2289 117.68 47.2903C116.038 50.6048 110.628 54.2175 104.714 55.9907C98.3145 57.9131 91.5793 58.2943 84.9562 59.2389C78.7061 60.1338 73.6128 62.7853 69.0792 66.5804C66.6538 68.6022 67.7359 70.7234 68.9859 72.5132C72.6799 77.7832 77.68 82.1748 81.9151 87.0636C82.6054 87.8425 83.277 88.1905 84.4338 87.5939C91.1316 84.18 98.0719 84.9921 105.012 86.815C111.747 88.5883 118.464 90.2289 125.367 87.1465C120.983 91.9856 114.956 93.3279 108.576 93.8748C104.639 94.2062 100.628 94.0405 96.8219 95.2171C92.1017 96.692 91.057 99.0453 93.2771 102.973C100.236 115.336 103.52 128.279 101.15 142.116C100.982 143.094 100.647 144.039 100.385 145H57.7545ZM38.0715 32.6405C30.0117 36.883 20.3661 36.3361 13.09 31.2153C20.3288 25.2162 31.9147 25.8791 38.0715 32.6405ZM95.6839 9.47259C95.7212 15.9192 91.2995 21.8354 85.1987 23.3601C84.1726 23.6252 82.9039 24.1721 82.0084 23.4264C81.1502 22.7303 82.083 21.7857 82.2509 20.9571C83.4076 15.4386 85.945 10.6492 91.4301 7.48393C92.4562 6.88733 93.5943 6.42331 94.7697 6.12501C95.2734 6.009 95.6652 7.43421 95.6839 9.47259ZM132.158 24.3876C135.852 31.4142 131.3 40.9763 123.371 43.2799C121.859 43.7107 121.076 43.5782 121.113 41.9209C121.356 34.3475 124.695 28.398 132.158 24.3876ZM111.766 55.4439C118.986 52.0963 126.206 52.2289 133.52 55.0627C136.225 56.1067 134.415 57.0845 133.483 57.8965C127.438 63.2162 117.512 62.1225 111.766 55.4439ZM130.591 85.8207C128.296 86.1024 127.96 85.191 128.893 83.1857C131.524 77.5346 135.833 73.6567 142.68 72.2315C144.098 71.9332 145.087 71.8172 144.994 73.607C144.751 79.9873 138.128 85.771 130.591 85.8207ZM106.038 32.4748C108.333 39.5843 105.833 45.3514 100.087 50.3065C98.6316 51.5494 97.9413 51.2511 97.2883 49.6602C94.5458 42.849 97.2883 35.3418 106.038 32.4748ZM97.4563 74.5516C91.7286 71.7012 89.5457 67.2101 89.6763 61.5921C89.7137 60.1669 90.2734 60.0178 91.6353 60.5812C97.4376 63.0505 100.591 68.6353 97.4563 74.5516ZM30.049 85.7378C29.4147 91.8364 24.8811 96.8743 18.8736 98.3161C15.4221 99.1447 14.937 98.6973 15.59 95.6314C16.9146 89.4334 21.1124 85.8041 27.8662 84.1966C29.9557 83.6994 30.2543 84.4286 30.049 85.7378ZM130.852 104.58C124.173 104.58 118.706 100.835 117.344 95.9132C116.934 94.4217 117.177 93.8748 118.968 93.9576C125.479 94.2559 130.945 96.1617 134.863 101.15C136.692 103.47 135.647 104.083 133.24 104.431C132.289 104.564 131.281 104.564 130.852 104.58ZM35.3103 71.3366C35.4222 72.5629 35.3289 74.2533 34.1909 74.883C33.1834 75.4465 31.7468 74.2036 30.6087 73.5738C25.6087 70.856 22.6982 67.0278 22.5303 61.6916C22.4744 60.1669 22.7355 59.5372 24.7878 59.9184C30.8513 61.0618 35.3289 65.7518 35.3103 71.3366ZM35.1983 46.9258C32.7356 46.7932 29.1908 46.7269 28.2766 44.4896C27.605 42.849 30.8513 41.3243 32.7356 40.1643C36.5603 37.7945 40.8513 37.0819 45.4782 37.8442C47.0081 38.1093 47.8104 38.5071 46.8215 39.982C43.967 44.2079 40.9446 46.8097 35.1983 46.9258ZM12.6982 77.8992C6.22423 77.7169 1.03762 73.7561 0.0861249 68.4365C-0.193728 66.945 0.160752 66.4975 1.85853 66.5141C8.08992 66.5804 12.4743 69.1988 15.2541 74.071C17.2691 77.6174 16.9892 78.0318 12.6982 77.8992ZM120.553 74.7007C120.423 79.7221 116.393 84.4949 111.356 85.7876C110.18 86.0859 109.658 85.9035 109.21 84.7766C107.009 79.2084 112.195 72.3143 118.856 72.0658C121.766 71.9332 120.031 73.8887 120.553 74.7007ZM34.3588 120.887C30.0304 120.954 29.3774 120.009 31.3364 116.446C33.8177 111.955 37.6797 110 42.9596 110.381C44.5827 110.497 44.9932 110.795 44.6014 112.369C43.2767 117.523 39.5081 120.805 34.3588 120.887ZM53.3514 24.9676C53.4261 27.3871 52.9597 30.221 50.5156 30.9833C48.5193 31.5965 47.2507 28.8123 45.7394 27.4369C45.5529 27.2711 45.4223 27.0888 45.2917 26.9065C43.1648 24.0396 43.0156 18.9187 44.8812 16.8306C45.5342 16.0849 46.0193 16.3335 46.7656 16.5655C50.6462 17.8084 53.3141 21.1726 53.3514 24.9676ZM78.8554 8.77656C78.7807 10.9972 78.7621 13.8974 76.5046 14.6597C74.2098 15.4386 72.7173 12.7373 71.2807 11.2292C68.4635 8.21311 68.6687 4.76609 69.956 1.23621C70.4971 -0.222143 71.4299 -0.238715 72.7173 0.407601C76.4113 2.24711 78.986 4.73294 78.8554 8.77656ZM51.7843 103.918C48.9111 104.116 46.2245 103.155 44.0976 101.117C42.717 99.8076 40.5342 97.8853 41.467 96.5926C42.5678 95.0846 45.4596 94.5377 47.829 94.7531C51.0567 95.068 53.65 96.5263 55.2171 99.1613C57.4373 102.89 56.7097 104 51.7843 103.918ZM62.3627 14.9083C67.8478 14.9746 72.1949 18.8359 72.0083 23.4927C71.971 24.5036 72.0829 25.3985 70.3292 25.415C65.1053 25.4813 60.7022 22.8132 59.303 18.5542C58.3142 15.4717 58.8179 14.8751 62.3627 14.9083ZM50.3477 122.147C50.329 117.822 52.8104 114.689 57.344 112.933C58.6313 112.419 59.0231 112.751 59.6202 113.629C62.4747 117.921 59.8627 123.721 54.4522 125.031C50.9447 125.859 50.3477 125.445 50.3477 122.147Z" fill="white"/>
</g>
<defs>
<clipPath id="clip0_5_6">
<rect width="145" height="145" fill="white"/>
</clipPath>
</defs>
</svg>
