<svg width="27" height="27" viewBox="0 0 27 27" fill="none" xmlns="http://www.w3.org/2000/svg">
<g clip-path="url(#clip0_5_3)">
<path d="M10.7543 27C11.8034 26.102 12.6963 25.1269 12.9151 23.7814C13.0194 23.1427 12.9777 22.507 12.9568 21.8682C12.9499 21.643 12.8422 21.4887 12.6094 21.3776C11.4769 20.8129 10.3826 20.1587 8.9721 20.2821C9.98652 19.5662 11.1851 19.7205 12.4149 19.7513C11.9181 18.3627 11.2719 17.0882 10.4173 15.9218C9.8823 15.1935 9.00336 15.0022 8.01674 15.1781C6.85294 15.3848 5.67524 15.4712 4.51491 15.1225C4.18488 15.0238 3.86874 14.9127 3.45881 14.635C4.95264 14.9466 6.16508 14.6103 7.3393 14.0857C8.00284 13.7925 8.66291 13.4809 9.43415 13.5025C9.80934 13.5148 9.74334 13.2895 9.75028 13.0828C9.7746 11.9503 9.86145 10.827 10.4694 9.79635C10.5111 9.72229 10.5528 9.64822 10.5979 9.57725C11.1712 8.71938 11.1642 8.72247 10.4868 7.9078C9.84061 7.12708 9.02768 6.54077 7.98547 6.18898C8.46142 6.10566 8.65596 6.13035 9.27782 6.30624C10.2679 6.58706 11.126 7.07154 11.859 7.71339C12.1578 7.97569 12.3002 7.92632 12.5608 7.67945C13.7107 6.59631 14.072 5.25705 14.2179 3.83756C14.2318 3.71721 14.2318 3.59378 14.2492 3.36542C14.5583 4.05048 14.5375 4.67382 14.5549 5.28174C14.5722 5.93903 14.5028 6.59014 14.27 7.22891C14.0442 7.843 13.7107 8.39845 13.3424 8.94774C12.9881 9.48159 12.5017 9.96607 12.3628 10.7591C14.3013 9.73772 16.3093 10.034 18.2721 9.96298C20.1342 9.89509 20.4885 9.72537 21.9129 8.80579C21.6072 9.42296 20.5997 10.0957 19.4984 10.4259C18.3068 10.7838 17.0527 10.8548 15.8194 11.0307C14.6556 11.1973 13.7072 11.6911 12.863 12.3977C12.4114 12.7742 12.6129 13.1692 12.8456 13.5025C13.5335 14.4838 14.4645 15.3015 15.2532 16.2118C15.3817 16.3569 15.5068 16.4217 15.7221 16.3106C16.9693 15.6749 18.2617 15.8261 19.554 16.1656C20.8081 16.4957 22.0588 16.8012 23.3442 16.2273C22.5278 17.1283 21.4057 17.3783 20.2176 17.4801C19.4845 17.5418 18.7376 17.511 18.0289 17.7301C17.15 18.0047 16.9554 18.4429 17.3688 19.1743C18.6647 21.4763 19.2761 23.8864 18.8349 26.4631C18.8036 26.6451 18.7411 26.821 18.6924 27H10.7543ZM7.08917 6.07789C5.58839 6.86787 3.79231 6.76604 2.43744 5.81251C3.78536 4.69543 5.94274 4.81886 7.08917 6.07789ZM17.817 1.76386C17.8239 2.96426 17.0006 4.06591 15.8646 4.34981C15.6735 4.39918 15.4373 4.50102 15.2705 4.36215C15.1107 4.23255 15.2844 4.05665 15.3157 3.90236C15.5311 2.87477 16.0035 1.98296 17.0249 1.39356C17.216 1.28247 17.4279 1.19606 17.6468 1.14052C17.7406 1.11892 17.8135 1.3843 17.817 1.76386ZM24.6087 4.54113C25.2966 5.84954 24.4489 7.63008 22.9725 8.05901C22.6911 8.13924 22.5452 8.11455 22.5521 7.80597C22.5973 6.39573 23.2191 5.28791 24.6087 4.54113ZM20.8116 10.324C22.1561 9.70069 23.5005 9.72537 24.8623 10.2531C25.3661 10.4475 25.0291 10.6295 24.8554 10.7807C23.7298 11.7713 21.8816 11.5676 20.8116 10.324ZM24.3169 15.9804C23.8896 16.0329 23.8271 15.8631 24.0008 15.4898C24.4906 14.4375 25.2931 13.7154 26.5681 13.45C26.8321 13.3945 27.0162 13.3729 26.9989 13.7061C26.9537 14.8942 25.7204 15.9711 24.3169 15.9804ZM19.7451 6.04703C20.1724 7.37086 19.7069 8.44474 18.6369 9.36741C18.3659 9.59885 18.2374 9.54331 18.1158 9.24706C17.6051 7.97878 18.1158 6.58088 19.7451 6.04703ZM18.147 13.882C17.0805 13.3513 16.674 12.515 16.6984 11.4689C16.7053 11.2035 16.8095 11.1757 17.0631 11.2806C18.1436 11.7404 18.7307 12.7804 18.147 13.882ZM5.59534 15.965C5.47722 17.1006 4.63303 18.0387 3.51439 18.3071C2.87169 18.4614 2.78137 18.3781 2.90296 17.8072C3.14962 16.6531 3.93127 15.9773 5.18887 15.678C5.57797 15.5854 5.63355 15.7212 5.59534 15.965ZM24.3655 19.4736C23.1218 19.4736 22.104 18.7762 21.8503 17.8597C21.7739 17.582 21.8191 17.4801 22.1526 17.4956C23.365 17.5511 24.3829 17.906 25.1125 18.8348C25.4529 19.2668 25.2584 19.381 24.8102 19.4458C24.633 19.4705 24.4455 19.4705 24.3655 19.4736ZM6.57502 13.2834C6.59586 13.5117 6.57849 13.8265 6.36657 13.9437C6.17897 14.0487 5.91147 13.8172 5.69956 13.7C4.76852 13.1939 4.22657 12.481 4.1953 11.4874C4.18488 11.2035 4.23352 11.0862 4.61566 11.1572C5.74472 11.3701 6.57849 12.2434 6.57502 13.2834ZM6.55417 8.7379C6.0956 8.71321 5.43553 8.70087 5.2653 8.28428C5.14024 7.97878 5.74472 7.69488 6.0956 7.47887C6.80778 7.03759 7.6068 6.9049 8.46836 7.04685C8.75323 7.09622 8.90262 7.17028 8.7185 7.44492C8.18697 8.23182 7.62417 8.7163 6.55417 8.7379ZM2.36448 14.5054C1.15899 14.4714 0.193213 13.7339 0.016037 12.7433C-0.0360735 12.4656 0.0299332 12.3823 0.34607 12.3854C1.5064 12.3977 2.3228 12.8853 2.84043 13.7925C3.21562 14.4529 3.16351 14.53 2.36448 14.5054ZM22.4479 13.9098C22.4236 14.8448 21.6732 15.7335 20.7352 15.9742C20.5163 16.0298 20.419 15.9958 20.3357 15.786C19.9257 14.7491 20.8915 13.4654 22.1317 13.4191C22.6737 13.3945 22.3506 13.7586 22.4479 13.9098ZM6.39784 22.5101C5.59186 22.5224 5.47027 22.3465 5.83505 21.6831C6.29709 20.8468 7.01622 20.4827 7.99937 20.5536C8.30161 20.5752 8.37804 20.6308 8.30508 20.9239C8.05843 21.8836 7.35667 22.4946 6.39784 22.5101ZM9.93441 4.64914C9.9483 5.09967 9.86145 5.62735 9.40635 5.7693C9.03463 5.88348 8.7984 5.36506 8.517 5.10893C8.48226 5.07807 8.45794 5.04413 8.43362 5.01018C8.03758 4.47633 8.00979 3.5228 8.3572 3.13398C8.47879 2.99512 8.56911 3.04141 8.70807 3.08461C9.43067 3.31605 9.92746 3.94248 9.93441 4.64914ZM14.6834 1.63426C14.6695 2.04776 14.666 2.58779 14.2457 2.72973C13.8184 2.87477 13.5405 2.37178 13.273 2.09096C12.7484 1.52934 12.7866 0.887478 13.0263 0.230191C13.127 -0.0413645 13.3007 -0.0444504 13.5405 0.075898C14.2283 0.418428 14.7077 0.881307 14.6834 1.63426ZM9.64259 19.3502C9.10759 19.3872 8.60733 19.2082 8.21129 18.8287C7.95421 18.5849 7.54774 18.2269 7.72145 17.9862C7.92641 17.7054 8.46489 17.6036 8.90609 17.6437C9.5071 17.7023 9.98999 17.9739 10.2818 18.4645C10.6952 19.1588 10.5597 19.3656 9.64259 19.3502ZM11.6124 2.77602C12.6337 2.78837 13.4432 3.50737 13.4084 4.3745C13.4015 4.56273 13.4223 4.72937 13.0958 4.73246C12.123 4.7448 11.3032 4.24798 11.0426 3.45491C10.8585 2.88094 10.9523 2.76985 11.6124 2.77602ZM9.37509 22.7446C9.37161 21.9392 9.83366 21.356 10.6779 21.0289C10.9176 20.9332 10.9905 20.9949 11.1017 21.1585C11.6332 21.9577 11.1468 23.0378 10.1394 23.2815C9.48626 23.4358 9.37509 23.3587 9.37509 22.7446Z" fill="currentColor"/>
</g>
<defs>
<clipPath id="clip0_5_3">
<rect width="27" height="27" fill="white"/>
</clipPath>
</defs>
</svg>
