<svg width="125" height="125" viewBox="0 0 125 125" fill="none" xmlns="http://www.w3.org/2000/svg">
<g clip-path="url(#clip0_82_172)">
<path d="M49.7883 125C54.6455 120.843 58.779 116.328 59.7923 110.099C60.2748 107.142 60.0818 104.199 59.9853 101.242C59.9531 100.199 59.4545 99.4845 58.3769 98.9702C53.1337 96.3558 48.0674 93.3271 41.5375 93.8986C46.2339 90.5841 51.7827 91.2984 57.4762 91.4413C55.1763 85.0124 52.1848 79.1122 48.2282 73.7119C45.7514 70.3403 41.6822 69.4546 37.1145 70.2689C31.7266 71.2261 26.2743 71.6261 20.9024 70.0117C19.3744 69.5546 17.9108 69.0403 16.013 67.7545C22.9289 69.1974 28.542 67.6402 33.9783 65.2115C37.0502 63.8543 40.1061 62.4114 43.6766 62.5114C45.4136 62.5685 45.108 61.5256 45.1402 60.5684C45.2528 55.3253 45.6549 50.1251 48.4695 45.3535C48.6625 45.0106 48.8555 44.6677 49.0646 44.3391C51.7184 40.3675 51.6862 40.3818 48.5499 36.6102C45.5584 32.9957 41.7948 30.2813 36.9698 28.6527C39.1732 28.267 40.0739 28.3812 42.9528 29.1956C47.5366 30.4956 51.5093 32.7386 54.9029 35.7102C56.2861 36.9245 56.9455 36.6959 58.1518 35.553C63.4754 30.5385 65.1481 24.3382 65.8236 17.7665C65.8879 17.2093 65.8879 16.6378 65.9683 15.5807C67.3998 18.7522 67.3033 21.6381 67.3837 24.4525C67.4641 27.4955 67.1424 30.5099 66.0648 33.4672C65.0194 36.3102 63.4754 38.8817 61.7705 41.4247C60.13 43.8962 57.8783 46.1392 57.235 49.8108C66.2096 45.082 75.5058 46.4535 84.593 46.1249C93.2138 45.8106 94.8543 45.0249 101.449 40.7675C100.033 43.6248 95.3689 46.7392 90.2705 48.2679C84.7538 49.9251 78.9477 50.2537 73.2381 51.068C67.8501 51.8395 63.4593 54.1253 59.551 57.3969C57.4602 59.1398 58.393 60.9685 59.4706 62.5114C62.6551 67.0545 66.9655 70.8404 70.6165 75.0548C71.2115 75.7263 71.7905 76.0263 72.7877 75.512C78.5617 72.569 84.5448 73.269 90.5278 74.8405C96.334 76.3692 102.124 77.7835 108.075 75.1263C104.295 79.2979 99.1003 80.4551 93.5998 80.9265C90.2062 81.2123 86.7482 81.0694 83.4672 82.0837C79.398 83.3552 78.4974 85.3839 80.4113 88.7698C86.4105 99.4274 89.2411 110.585 87.1985 122.514C87.0538 123.357 86.7643 124.171 86.5391 125H49.7883ZM32.8202 28.1384C25.8722 31.7957 17.557 31.3242 11.2844 26.9098C17.5248 21.7381 27.5127 22.3095 32.8202 28.1384ZM82.4861 8.16603C82.5182 13.7234 78.7065 18.8237 73.4472 20.138C72.5626 20.3666 71.4689 20.838 70.6969 20.1952C69.957 19.5951 70.7612 18.7808 70.906 18.0665C71.9031 13.3091 74.0905 9.18036 78.819 6.45166C79.7036 5.93735 80.6847 5.53733 81.698 5.28018C82.1322 5.18017 82.47 6.4088 82.4861 8.16603ZM113.929 21.0238C117.114 27.0812 113.189 35.3244 106.354 37.3102C105.051 37.6817 104.376 37.5674 104.408 36.1387C104.617 29.6099 107.496 24.4811 113.929 21.0238ZM96.35 47.7964C102.574 44.9106 108.799 45.0249 115.103 47.4678C117.436 48.3679 115.875 49.2108 115.071 49.9108C109.86 54.4967 101.304 53.5538 96.35 47.7964ZM112.578 73.9834C110.6 74.2262 110.311 73.4405 111.115 71.7118C113.382 66.8402 117.098 63.4972 123 62.2685C124.223 62.0114 125.075 61.9114 124.995 63.4543C124.786 68.9546 119.076 73.9405 112.578 73.9834ZM91.4124 27.9955C93.3907 34.1244 91.2355 39.096 86.2818 43.3677C85.0273 44.4391 84.4322 44.182 83.8693 42.8105C81.505 36.9388 83.8693 30.4671 91.4124 27.9955ZM84.014 64.2686C79.0764 61.8114 77.1946 57.9398 77.3072 53.0967C77.3394 51.8681 77.8219 51.7395 78.996 52.2252C83.9979 54.3539 86.716 59.1684 84.014 64.2686ZM25.9043 73.9119C25.3575 79.1693 21.4492 83.5124 16.2703 84.7553C13.2949 85.4696 12.8767 85.0839 13.4396 82.4409C14.5816 77.0978 18.2003 73.9691 24.0226 72.5833C25.8239 72.1547 26.0813 72.7833 25.9043 73.9119ZM112.803 90.1555C107.046 90.1555 102.333 86.9268 101.159 82.6838C100.805 81.398 101.014 80.9265 102.558 80.998C108.171 81.2551 112.884 82.8981 116.261 87.1982C117.838 89.1983 116.937 89.7269 114.862 90.027C114.042 90.1412 113.173 90.1412 112.803 90.1555ZM30.4399 61.4971C30.5364 62.5543 30.456 64.0115 29.4749 64.5544C28.6064 65.0401 27.3679 63.9686 26.3868 63.4257C22.0765 61.0828 19.5674 57.7826 19.4227 53.1824C19.3744 51.868 19.5996 51.3252 21.3688 51.6538C26.5959 52.6395 30.456 56.6826 30.4399 61.4971ZM30.3434 40.4532C28.2204 40.3389 25.1645 40.2818 24.3764 38.3531C23.7974 36.9388 26.5959 35.6244 28.2204 34.6244C31.5175 32.5814 35.2167 31.9671 39.2054 32.6243C40.5242 32.8529 41.2158 33.1958 40.3634 34.4672C37.9026 38.1103 35.2971 40.3532 30.3434 40.4532ZM10.9467 67.1545C5.36572 66.9973 0.894504 63.5829 0.0742456 58.9969C-0.167007 57.7112 0.13858 57.3254 1.60218 57.3397C6.97407 57.3969 10.7537 59.6541 13.1501 63.8543C14.8871 66.9116 14.6459 67.2688 10.9467 67.1545ZM103.925 64.3972C103.813 68.726 100.339 72.8404 95.9962 73.9548C94.983 74.2119 94.5326 74.0548 94.1466 73.0833C92.2488 68.2831 96.72 62.34 102.462 62.1257C104.971 62.0114 103.475 63.6972 103.925 64.3972ZM29.6196 104.213C25.8883 104.27 25.3253 103.456 27.0141 100.385C29.1532 96.513 32.4825 94.8272 37.0341 95.1558C38.4334 95.2558 38.7872 95.5129 38.4495 96.8701C37.3075 101.313 34.0587 104.142 29.6196 104.213ZM45.9926 21.5238C46.057 23.6096 45.6549 26.0526 43.5479 26.7097C41.827 27.2383 40.7333 24.8382 39.4306 23.6525C39.2697 23.5096 39.1571 23.3524 39.0446 23.1953C37.211 20.7238 37.0824 16.3093 38.6907 14.5092C39.2536 13.8663 39.6718 14.0806 40.3152 14.2806C43.6605 15.3521 45.9605 18.2522 45.9926 21.5238ZM67.9788 7.566C67.9144 9.48037 67.8983 11.9805 65.9522 12.6377C63.974 13.3091 62.6873 10.9804 61.4489 9.68038C59.0203 7.08026 59.1972 4.1087 60.3069 1.0657C60.7734 -0.191502 61.5775 -0.205789 62.6873 0.35138C65.8718 1.93717 68.0914 4.08012 67.9788 7.566ZM44.6416 89.5841C42.1648 89.7555 39.8487 88.9269 38.0152 87.1697C36.825 86.0411 34.9433 84.3838 35.7474 83.2695C36.6964 81.9694 39.1893 81.498 41.2319 81.6837C44.0144 81.9552 46.25 83.2124 47.601 85.4839C49.5149 88.6983 48.8877 89.6555 44.6416 89.5841ZM53.761 12.852C58.4895 12.9091 62.237 16.2378 62.0761 20.2523C62.044 21.1238 62.1405 21.8952 60.6286 21.9095C56.1252 21.9667 52.3295 19.6666 51.1233 15.995C50.2708 13.3377 50.7051 12.8234 53.761 12.852ZM43.4032 105.299C43.3871 101.57 45.5262 98.8702 49.4345 97.3559C50.5443 96.913 50.882 97.1987 51.3967 97.9559C53.8575 101.656 51.6058 106.656 46.9416 107.785C43.9179 108.499 43.4032 108.142 43.4032 105.299Z" fill="currentColor"/>
</g>
<defs>
<clipPath id="clip0_82_172">
<rect width="125" height="125" fill="white"/>
</clipPath>
</defs>
</svg>
