<svg width="60" height="60" viewBox="0 0 60 60" fill="none" xmlns="http://www.w3.org/2000/svg">
<path d="M3 3.75C4.65938 3.75 6 5.42578 6 7.5V37.5H27V18.75C27 16.6758 28.3406 15 30 15H51C55.9688 15 60 20.0391 60 26.25V52.5C60 54.5742 58.6594 56.25 57 56.25C55.3406 56.25 54 54.5742 54 52.5V48.75H33H30H6V52.5C6 54.5742 4.65938 56.25 3 56.25C1.34062 56.25 0 54.5742 0 52.5V7.5C0 5.42578 1.34062 3.75 3 3.75ZM16.5 15C18.4891 15 20.3968 15.9877 21.8033 17.7459C23.2098 19.504 24 21.8886 24 24.375C24 26.8614 23.2098 29.246 21.8033 31.0041C20.3968 32.7623 18.4891 33.75 16.5 33.75C14.5109 33.75 12.6032 32.7623 11.1967 31.0041C9.79018 29.246 9 26.8614 9 24.375C9 21.8886 9.79018 19.504 11.1967 17.7459C12.6032 15.9877 14.5109 15 16.5 15Z" fill="#0F2F2A"/>
</svg>
