<svg width="80" height="80" viewBox="0 0 80 80" fill="none" xmlns="http://www.w3.org/2000/svg">
<path d="M56.6667 18.75C56.6667 27.2812 46.5139 42.4844 42.0556 48.75C40.9861 50.25 39 50.25 37.9444 48.75C33.4861 42.4844 23.3333 27.2812 23.3333 18.75C23.3333 8.39062 30.7917 0 40 0C49.2083 0 56.6667 8.39062 56.6667 18.75ZM57.7778 31.3125C58.2639 30.2344 58.7083 29.1562 59.1111 28.0938C59.1806 27.9062 59.25 27.7031 59.3194 27.5156L75.4306 20.2656C77.625 19.2812 80 21.0938 80 23.75V66.0625C80 67.5938 79.1667 68.9688 77.9028 69.5469L57.7778 78.5938V31.3125ZM19.1111 21.6094C19.4444 23.8125 20.1111 26.0312 20.8889 28.0938C21.2917 29.1562 21.7361 30.2344 22.2222 31.3125V70.5938L4.56944 78.5469C2.375 79.5312 0 77.7188 0 75.0625V32.75C0 31.2188 0.833333 29.8438 2.09722 29.2656L19.125 21.6094H19.1111ZM45.5278 51.875C47.4583 49.1562 50.4861 44.7344 53.3333 39.8438V78.7969L26.6667 70.2188V39.8438C29.5139 44.7344 32.5417 49.1562 34.4722 51.875C37.3194 55.875 42.6806 55.875 45.5278 51.875ZM40 23.75C41.4734 23.75 42.8865 23.0915 43.9284 21.9194C44.9702 20.7473 45.5556 19.1576 45.5556 17.5C45.5556 15.8424 44.9702 14.2527 43.9284 13.0806C42.8865 11.9085 41.4734 11.25 40 11.25C38.5266 11.25 37.1135 11.9085 36.0716 13.0806C35.0298 14.2527 34.4444 15.8424 34.4444 17.5C34.4444 19.1576 35.0298 20.7473 36.0716 21.9194C37.1135 23.0915 38.5266 23.75 40 23.75Z" fill="white" fill-opacity="0.2"/>
</svg>
