<svg width="60" height="60" viewBox="0 0 60 60" fill="none" xmlns="http://www.w3.org/2000/svg">
<g clip-path="url(#clip0_52_108)">
<path d="M60 9.375C60 11.4844 58.3242 13.4297 55.5 15C52.0898 16.8867 47.0039 18.2227 41.168 18.6211C40.7344 18.4102 40.3008 18.2109 39.8438 18.0352C35.2266 16.1016 29.0859 15 22.5 15C21.5273 15 20.5781 15.0234 19.6289 15.0703L19.5 15C16.6758 13.4297 15 11.4844 15 9.375C15 4.19531 25.0781 0 37.5 0C49.9219 0 60 4.19531 60 9.375ZM18.832 18.8789C20.0273 18.7969 21.2578 18.75 22.5 18.75C29.7891 18.75 36.2578 20.1914 40.3711 22.4297C43.2773 24.0117 45 25.9805 45 28.125C45 28.5938 44.918 29.0508 44.7539 29.4961C44.2148 31.043 42.7617 32.4609 40.6523 33.6562C40.6406 33.668 40.6172 33.668 40.6055 33.6797C40.5703 33.7031 40.5352 33.7148 40.5 33.7383C36.3984 36.0117 29.8594 37.4883 22.5 37.4883C15.5156 37.4883 9.26953 36.1641 5.13281 34.0781C4.91016 33.9727 4.69922 33.8555 4.48828 33.7383C1.67578 32.1797 0 30.2344 0 28.125C0 24.0469 6.25781 20.5664 15 19.2891C16.2305 19.1133 17.5078 18.9727 18.832 18.8789ZM48.75 28.125C48.75 25.5586 47.5078 23.4492 45.9258 21.8672C49.2422 21.3516 52.2773 20.5312 54.8555 19.4648C56.7656 18.668 58.5469 17.6836 60 16.4766V20.625C60 22.8867 58.0664 24.9727 54.8672 26.5898C53.1562 27.457 51.0703 28.1953 48.7266 28.7578C48.7383 28.5469 48.75 28.3477 48.75 28.1367V28.125ZM45 39.375C45 41.4844 43.3242 43.4297 40.5 45C40.2891 45.1172 40.0781 45.2227 39.8555 45.3398C35.7305 47.4258 29.4844 48.75 22.5 48.75C15.1406 48.75 8.60156 47.2734 4.5 45C1.67578 43.4297 0 41.4844 0 39.375V35.2266C1.46484 36.4336 3.23438 37.418 5.14453 38.2148C9.77344 40.1484 15.9141 41.25 22.5 41.25C29.0859 41.25 35.2266 40.1484 39.8555 38.2148C40.7695 37.8398 41.6484 37.4062 42.4805 36.9375C43.1953 36.5391 43.8633 36.0938 44.4961 35.625C44.6719 35.4961 44.8359 35.3555 45 35.2266V35.625V36.293V39.375ZM48.75 39.375V35.625V32.5898C50.9766 32.0977 53.0273 31.4766 54.8555 30.7148C56.7656 29.918 58.5469 28.9336 60 27.7266V31.875C60 33.1055 59.4141 34.3359 58.2539 35.4961C56.3438 37.4062 52.9805 38.9766 48.7266 39.9961C48.7383 39.7969 48.75 39.5859 48.75 39.375ZM22.5 52.5C29.0859 52.5 35.2266 51.3984 39.8555 49.4648C41.7656 48.668 43.5469 47.6836 45 46.4766V50.625C45 55.8047 34.9219 60 22.5 60C10.0781 60 0 55.8047 0 50.625V46.4766C1.46484 47.6836 3.23438 48.668 5.14453 49.4648C9.77344 51.3984 15.9141 52.5 22.5 52.5Z" fill="#F23535"/>
</g>
<defs>
<clipPath id="clip0_52_108">
<rect width="60" height="60" fill="white"/>
</clipPath>
</defs>
</svg>
