<svg width="100" height="100" viewBox="0 0 100 100" fill="none" xmlns="http://www.w3.org/2000/svg">
<g clip-path="url(#clip0_18_86)">
<path d="M99.03 33.97C98.85 32.79 98.73 31.61 98.48 30.44C98.18 29.27 97.82 28.36 97.49 27.69C97.43 27.57 97.36 27.46 97.29 27.35C94.07 22.13 89.38 18.59 84.32 15.44C80.63 13.14 76.77 11.11 72.86 9.20004C71.17 8.37004 70.21 7.17004 70.13 5.18004C69.97 1.21004 69.8 1.09004 65.89 0.200042C65.24 -0.159958 64.73 0.0400422 64.08 0.200042C61.98 1.51004 61.3 3.33004 61.32 5.85004C61.43 23.23 61.38 40.62 61.37 58C61.37 58.77 61.31 59.55 61.28 60.26C47.4 53.71 34.44 54.83 22.65 64.27C10.9 73.69 13.13 88.54 26.87 94.38C38.39 99.28 54.08 96.27 62.95 87.47C67.03 83.42 69.19 78.72 69.12 72.79C68.93 57.97 69.09 43.14 69.02 28.32C69.01 26.57 69.47 26.11 71.18 26.4C81.17 28.06 89.2 32.84 94.97 41.22C95.96 42.66 96.81 44.2 97.76 45.75C99 40.77 99.25 36.9 99.03 33.97ZM98.48 30.44C98.18 29.27 97.82 28.36 97.49 27.69C97.98 28.58 98.28 29.5 98.48 30.44ZM8.77996 67.49C7.01996 67.46 6.19996 66.16 6.67996 64.16C8.59996 56.17 15.98 49.48 24.36 48.1C24.95 48 25.54 47.91 26.14 47.81C27.83 47.54 29.31 47.92 29.57 49.79C29.82 51.56 28.5 52.24 26.92 52.48C25.67 52.68 24.39 52.85 23.18 53.22C17.12 55.09 13.2 59.15 11.3 65.14C10.87 66.49 10.36 67.5 8.77996 67.49ZM3.32996 54.05C1.65996 54.08 0.64996 52.75 1.01996 51.01C2.05996 46.1 7.71996 41.48 12.8 41.45C14.14 41.44 15.15 42.06 15.29 43.51C15.45 45.21 14.41 45.97 12.9 46.18C9.29996 46.68 6.82996 48.53 5.71996 52.05C5.62996 52.33 5.49996 52.61 5.35996 52.87C4.93996 53.7 4.21996 54.02 3.32996 54.05ZM69.82 87.4C71.49 87.37 72.5 88.7 72.13 90.44C71.09 95.35 65.43 99.97 60.35 100C59.01 100.01 58 99.39 57.86 97.94C57.7 96.24 58.74 95.48 60.25 95.27C63.85 94.77 66.32 92.92 67.43 89.4C67.52 89.12 67.65 88.84 67.79 88.58C68.22 87.75 68.93 87.43 69.82 87.4Z" fill="#1a1a1a"/>
</g>
<defs>
<clipPath id="clip0_18_86">
<rect width="100" height="100" fill="white"/>
</clipPath>
</defs>
</svg>
