<svg width="81" height="81" viewBox="0 0 81 81" fill="none" xmlns="http://www.w3.org/2000/svg">
<g clip-path="url(#clip0_79_554)">
<path d="M80.2143 27.5157C80.0685 26.5599 79.9713 25.6041 79.7688 24.6564C79.5258 23.7087 79.2342 22.9716 78.9669 22.4289C78.9183 22.3317 78.8616 22.2426 78.8049 22.1535C76.1967 17.9253 72.3978 15.0579 68.2992 12.5064C65.3103 10.6434 62.1837 8.99905 59.0166 7.45195C57.6477 6.77965 56.8701 5.80765 56.8053 4.19575C56.6757 0.980054 56.538 0.882854 53.3709 0.161954C52.8444 -0.129646 52.4313 0.0323536 51.9048 0.161954C50.2038 1.22305 49.653 2.69725 49.6692 4.73845C49.7583 18.8163 49.7178 32.9022 49.7097 46.98C49.7097 47.6037 49.6611 48.2355 49.6368 48.8106C38.394 43.5051 27.8964 44.4123 18.3465 52.0587C8.82902 59.6889 10.6353 71.7174 21.7647 76.4478C31.0959 80.4168 43.8048 77.9787 50.9895 70.8507C54.2943 67.5702 56.0439 63.7632 55.9872 58.9599C55.8333 46.9557 55.9629 34.9434 55.9062 22.9392C55.8981 21.5217 56.2707 21.1491 57.6558 21.384C65.7477 22.7286 72.252 26.6004 76.9257 33.3882C77.7276 34.5546 78.4161 35.802 79.1856 37.0575C80.19 33.0237 80.3925 29.889 80.2143 27.5157ZM79.7688 24.6564C79.5258 23.7087 79.2342 22.9716 78.9669 22.4289C79.3638 23.1498 79.6068 23.895 79.7688 24.6564ZM7.11182 54.6669C5.68622 54.6426 5.02202 53.5896 5.41082 51.9696C6.96602 45.4977 12.9438 40.0788 19.7316 38.961C20.2095 38.88 20.6874 38.8071 21.1734 38.7261C22.5423 38.5074 23.7411 38.8152 23.9517 40.3299C24.1542 41.7636 23.085 42.3144 21.8052 42.5088C20.7927 42.6708 19.7559 42.8085 18.7758 43.1082C13.8672 44.6229 10.692 47.9115 9.15302 52.7634C8.80472 53.8569 8.39162 54.675 7.11182 54.6669ZM2.69732 43.7805C1.34462 43.8048 0.526515 42.7275 0.826215 41.3181C1.66862 37.341 6.25322 33.5988 10.368 33.5745C11.4534 33.5664 12.2715 34.0686 12.3849 35.2431C12.5145 36.6201 11.6721 37.2357 10.449 37.4058C7.53302 37.8108 5.53232 39.3093 4.63322 42.1605C4.56032 42.3873 4.45502 42.6141 4.34162 42.8247C4.00142 43.497 3.41822 43.7562 2.69732 43.7805ZM56.5542 70.794C57.9069 70.7697 58.725 71.847 58.4253 73.2564C57.5829 77.2335 52.9983 80.9757 48.8835 81C47.7981 81.0081 46.98 80.5059 46.8666 79.3314C46.737 77.9544 47.5794 77.3388 48.8025 77.1687C51.7185 76.7637 53.7192 75.2652 54.6183 72.414C54.6912 72.1872 54.7965 71.9604 54.9099 71.7498C55.2582 71.0775 55.8333 70.8183 56.5542 70.794Z" fill="white" fill-opacity="0.2"/>
</g>
<defs>
<clipPath id="clip0_79_554">
<rect width="81" height="81" fill="white"/>
</clipPath>
</defs>
</svg>
