<svg width="100" height="100" viewBox="0 0 100 100" fill="none" xmlns="http://www.w3.org/2000/svg">
<path d="M34.22 71.03C27.25 70.35 24.86 59.05 24.86 59.05C24.86 59.05 21.82 83.98 39.95 92.17C37.96 88.37 38.07 83.46 40.14 80.11C44.23 73.5 41.15 69.51 41.15 69.51C49.8 72.61 45.13 80.32 45.13 80.32C45.13 80.32 52.76 78.6 47.24 68.88C41.72 59.16 47.97 54.98 47.97 54.98C47.97 54.98 43.71 60.96 54.8 70.61L58.4 86.35C61.78 86.03 62.95 80.57 62.95 80.57C62.95 80.57 63.9 88.67 59.42 93.76C65.06 92.14 69.15 88.58 71.77 84.16C76.48 76.22 76.44 65.5 72.01 58.27L71.77 57.88C69.93 54.81 68.84 52.02 68.25 49.53C66.26 41.17 69.97 36.35 69.97 36.35C61.26 39.45 59.06 44.82 59.1 49.52C59.14 54.47 61.67 58.67 61.67 58.67C61.67 58.67 54.32 56.98 53.32 49.52C52.86 46.06 53.76 41.37 57.39 35.02C68.85 14.96 55.96 6.26001 55.96 6.26001C55.96 6.26001 64.73 18.62 41.74 38.5C37.15 42.46 34.09 46.15 32.13 49.5C24.31 62.92 34.22 71.03 34.22 71.03Z" fill="#1a1a1a"/>
</svg>
