<svg width="80" height="80" viewBox="0 0 80 80" fill="none" xmlns="http://www.w3.org/2000/svg">
<path d="M27.376 56.8238C21.8 56.2798 19.888 47.2398 19.888 47.2398C19.888 47.2398 17.456 67.1838 31.96 73.7358C30.368 70.6958 30.456 66.7678 32.112 64.0878C35.384 58.7998 32.92 55.6078 32.92 55.6078C39.84 58.0878 36.104 64.2558 36.104 64.2558C36.104 64.2558 42.208 62.8798 37.792 55.1038C33.376 47.3278 38.376 43.9838 38.376 43.9838C38.376 43.9838 34.968 48.7678 43.84 56.4878L46.72 69.0798C49.424 68.8238 50.36 64.4558 50.36 64.4558C50.36 64.4558 51.12 70.9358 47.536 75.0078C52.048 73.7118 55.32 70.8638 57.416 67.3278C61.184 60.9758 61.152 52.3998 57.608 46.6158L57.416 46.3038C55.944 43.8478 55.072 41.6158 54.6 39.6238C53.008 32.9358 55.976 29.0798 55.976 29.0798C49.008 31.5598 47.248 35.8558 47.28 39.6158C47.312 43.5758 49.336 46.9358 49.336 46.9358C49.336 46.9358 43.456 45.5838 42.656 39.6158C42.288 36.8478 43.008 33.0958 45.912 28.0158C55.08 11.9678 44.768 5.00781 44.768 5.00781C44.768 5.00781 51.784 14.8958 33.392 30.7998C29.72 33.9678 27.272 36.9198 25.704 39.5998C19.448 50.3358 27.376 56.8238 27.376 56.8238Z" fill="white" fill-opacity="0.2"/>
</svg>
