<svg width="100" height="100" viewBox="0 0 100 100" fill="none" xmlns="http://www.w3.org/2000/svg">
<g clip-path="url(#clip0_18_90)">
<path d="M65.84 2.64005C60.71 0.920049 55.38 0.0500488 50.01 0.0500488C28.5 0.0500488 9.47 13.76 2.65 34.1701C-1.58 46.82 -0.630002 60.3601 5.33 72.2901C11.28 84.2201 21.52 93.1301 34.18 97.36C39.32 99.08 44.64 99.9501 50.02 99.9501C71.52 99.9501 90.55 86.2401 97.37 65.83C106.1 39.72 91.96 11.37 65.84 2.64005ZM79.88 22.54L80.42 22.56L80.78 22.97C83.01 25.51 84.92 28.33 86.47 31.35L87.35 33.07L85.42 33.1701C64.44 34.1901 53.42 43.24 48.73 48.5401L48.2 49.14L47.44 48.91C43.54 47.7401 40.11 45.03 37.26 40.84L36.76 40.1L37.3 39.39C40.28 35.43 51.95 22.5 77.2 22.5C78.08 22.49 78.98 22.51 79.88 22.54ZM29.56 14.49C35.79 10.9 42.86 9.00005 50.01 9.00005C54.43 9.00005 58.8 9.72005 63.01 11.13C64.26 11.55 65.56 12.05 66.88 12.64L70.84 14.41L66.55 15.02C50.14 17.36 39.92 24.72 34.23 30.49L32.8 31.94L32.16 30C30.38 24.62 29.44 19.28 28.96 15.74L28.85 14.91L29.56 14.49ZM11.93 34.9501C13.75 30.34 16.35 26.14 19.66 22.48L21.32 20.64L21.81 23.07C24.05 34.2201 30.24 53.48 46.54 57.1201L47.18 57.26L47.43 57.86C49.01 61.71 50.11 65.64 50.69 69.5301L50.92 71.09L49.35 70.96C45.22 70.62 38.85 69.16 32.01 64.1401C23.83 58.1501 17.08 48.6301 11.94 35.8601L11.75 35.4001L11.93 34.9501ZM51 80.5601C50.7 83.8101 50.05 87.0001 49.08 90.0401L48.79 90.96L47.83 90.91C44.11 90.71 40.47 90.0301 37.03 88.87C26.64 85.4001 18.23 78.09 13.34 68.3C11.12 63.85 9.74 59.1101 9.23 54.1901L8.67 48.7701L11.53 53.41C24.78 74.85 41.2 78.7701 49.82 79.2001L51.12 79.2701L51 80.5601ZM71.59 84.4201L71.47 84.93L71.02 85.2001C67.44 87.34 63.57 88.9201 59.5 89.8901L57.54 90.36L58 88.4C59.78 80.72 60.7 68.6701 55.02 54.8401L54.72 54.11L55.26 53.53C57.15 51.47 60.55 48.48 65.98 45.94L67.01 45.46L67.58 46.44C71.07 52.41 76.24 65.3201 71.59 84.4201ZM88.88 63C87.71 66.5001 86.04 69.87 83.89 73.0301L81.43 76.65L81.61 72.2701C82.14 59.5101 78.7 50 75.72 44.2701L74.96 42.8L76.58 42.4701C80.41 41.6901 84.59 41.2901 89.01 41.2701H90.04L90.24 42.2901C91.58 49.18 91.1 56.34 88.88 63Z" fill="#1a1a1a"/>
</g>
<defs>
<clipPath id="clip0_18_90">
<rect width="100" height="100" fill="white"/>
</clipPath>
</defs>
</svg>
