<svg width="80" height="80" viewBox="0 0 80 80" fill="none" xmlns="http://www.w3.org/2000/svg">
<g clip-path="url(#clip0_79_552)">
<path d="M52.672 2.11204C48.568 0.736039 44.304 0.0400391 40.008 0.0400391C22.8 0.0400391 7.57597 11.008 2.11997 27.336C-1.26403 37.456 -0.504026 48.288 4.26397 57.832C9.02397 67.376 17.216 74.504 27.344 77.888C31.456 79.264 35.712 79.96 40.016 79.96C57.216 79.96 72.44 68.992 77.896 52.664C84.88 31.776 73.568 9.09604 52.672 2.11204ZM63.904 18.032L64.336 18.048L64.624 18.376C66.408 20.408 67.936 22.664 69.176 25.08L69.88 26.456L68.336 26.536C51.552 27.352 42.736 34.592 38.984 38.832L38.56 39.312L37.952 39.128C34.832 38.192 32.088 36.024 29.808 32.672L29.408 32.08L29.84 31.512C32.224 28.344 41.56 18 61.76 18C62.464 17.992 63.184 18.008 63.904 18.032ZM23.648 11.592C28.632 8.72004 34.288 7.20004 40.008 7.20004C43.544 7.20004 47.04 7.77604 50.408 8.90404C51.408 9.24004 52.448 9.64004 53.504 10.112L56.672 11.528L53.24 12.016C40.112 13.888 31.936 19.776 27.384 24.392L26.24 25.552L25.728 24C24.304 19.696 23.552 15.424 23.168 12.592L23.08 11.928L23.648 11.592ZM9.54397 27.96C11 24.272 13.08 20.912 15.728 17.984L17.056 16.512L17.448 18.456C19.24 27.376 24.192 42.784 37.232 45.696L37.744 45.808L37.944 46.288C39.208 49.368 40.088 52.512 40.552 55.624L40.736 56.872L39.48 56.768C36.176 56.496 31.08 55.328 25.608 51.312C19.064 46.52 13.664 38.904 9.55197 28.688L9.39997 28.32L9.54397 27.96ZM40.8 64.448C40.56 67.048 40.04 69.6 39.264 72.032L39.032 72.768L38.264 72.728C35.288 72.568 32.376 72.024 29.624 71.096C21.312 68.32 14.584 62.472 10.672 54.64C8.89597 51.08 7.79197 47.288 7.38397 43.352L6.93597 39.016L9.22397 42.728C19.824 59.88 32.96 63.016 39.856 63.36L40.896 63.416L40.8 64.448ZM57.272 67.536L57.176 67.944L56.816 68.16C53.952 69.872 50.856 71.136 47.6 71.912L46.032 72.288L46.4 70.72C47.824 64.576 48.56 54.936 44.016 43.872L43.776 43.288L44.208 42.824C45.72 41.176 48.44 38.784 52.784 36.752L53.608 36.368L54.064 37.152C56.856 41.928 60.992 52.256 57.272 67.536ZM71.104 50.4C70.168 53.2 68.832 55.896 67.112 58.424L65.144 61.32L65.288 57.816C65.712 47.608 62.96 40 60.576 35.416L59.968 34.24L61.264 33.976C64.328 33.352 67.672 33.032 71.208 33.016H72.032L72.192 33.832C73.264 39.344 72.88 45.072 71.104 50.4Z" fill="white" fill-opacity="0.2"/>
</g>
<defs>
<clipPath id="clip0_79_552">
<rect width="80" height="80" fill="white"/>
</clipPath>
</defs>
</svg>
