<svg width="80" height="80" viewBox="0 0 80 80" fill="none" xmlns="http://www.w3.org/2000/svg">
<path d="M76.4375 44.9844H72.1562C71.75 44.9844 71.4375 45.2969 71.4375 45.7031V50.7031H65.7188V22.8438C65.7188 22.4375 65.4062 22.125 65 22.125H60.7188C60.3125 22.125 60 22.4375 60 22.8438V27.8438H54.2812V22.8438C54.2812 22.4375 53.9687 22.125 53.5625 22.125H49.2812C48.875 22.125 48.5625 22.4375 48.5625 22.8438V27.8438H42.8438V22.8438C42.8438 21.9063 41.5938 22.125 41.0156 22.125V16.1875C42.3125 15.875 43.6875 15.6563 45.0312 15.6563C46.7344 15.6563 48.2969 16.3281 49.9375 16.3281C50.6562 16.3281 54.2656 16.1563 54.2656 15.0781V5.70313C54.2656 5.29688 53.9531 4.98438 53.5469 4.98438C52.75 4.98438 51.1875 5.65625 49.7969 5.65625C48.2812 5.65625 46.5312 4.98438 44.7031 4.98438C43.4531 4.98438 42.2031 5.15625 41 5.4375V4.67188C41.8438 4.26563 42.4219 3.375 42.4219 2.4375C42.4219 -0.796871 37.5156 -0.812496 37.5156 2.4375C37.5156 3.375 38.0938 4.26563 38.9375 4.67188V22.125C38.3594 22.125 37.1094 21.9063 37.1094 22.8438V27.8438H31.3906V22.8438C31.3906 22.4375 31.0781 22.125 30.6719 22.125H26.3906C25.9844 22.125 25.6719 22.4375 25.6719 22.8438V27.8438H20V22.8438C20 22.4375 19.6875 22.125 19.2812 22.125H15C14.5938 22.125 14.2812 22.4375 14.2812 22.8438V50.7031H8.5625V45.7031C8.5625 45.2969 8.25 44.9844 7.84375 44.9844H3.5625C3.15625 44.9844 2.84375 45.2969 2.84375 45.7031V80H31.4219V65C31.4219 53.6562 48.5625 53.6562 48.5625 65V80H77.1406V45.7031C77.1562 45.2969 76.8438 44.9844 76.4375 44.9844ZM31.4219 44.2812C31.4219 44.6875 31.1094 45 30.7031 45H26.4219C26.0156 45 25.7031 44.6875 25.7031 44.2812V34.2812C25.7031 33.875 26.0156 33.5625 26.4219 33.5625H30.7031C31.1094 33.5625 31.4219 33.875 31.4219 34.2812V44.2812ZM54.2969 44.2812C54.2969 44.6875 53.9844 45 53.5781 45H49.2969C48.8906 45 48.5781 44.6875 48.5781 44.2812V34.2812C48.5781 33.875 48.8906 33.5625 49.2969 33.5625H53.5781C53.9844 33.5625 54.2969 33.875 54.2969 34.2812V44.2812Z" fill="#1a1a1a" fill-opacity="1"/>
</svg>
