<svg width="80" height="80" viewBox="0 0 80 80" fill="none" xmlns="http://www.w3.org/2000/svg">
<g clip-path="url(#clip0_84_208)">
<path d="M48.0972 42.4688L39.75 39.0469L29.7222 70H4.44444C1.98611 70 0 72.2344 0 75C0 77.7656 1.98611 80 4.44444 80H75.5556C78.0139 80 80 77.7656 80 75C80 72.2344 78.0139 70 75.5556 70H39.1806L48.0833 42.4688H48.0972ZM64.9167 42.4375L64.4583 43.8594L73.8611 47.7031C76.375 48.7344 79.1389 47.0469 79.3611 44.0469C80.2639 31.7812 76.0417 19.75 68.1389 11.4688C68.4167 12.7188 68.5833 14.0156 68.6111 15.3437L68.6389 16.2812C68.8889 25.1875 67.625 34.0625 64.9167 42.4375ZM64.1667 15.4844C64.0139 10.1094 61.0417 5.35938 56.6111 3.39063C56.4861 3.32813 56.3472 3.28125 56.2222 3.21875C51.6389 1.39063 46.5278 2.84375 43.2917 6.9375L42.7361 7.64063C37.8333 13.7969 34.0278 20.9688 31.5 28.75L31.0417 30.1719L60.2778 42.1406L60.7361 40.7188C63.25 32.9375 64.4306 24.7031 64.1945 16.4219L64.1667 15.4844ZM14.8889 17.6406C13.3472 20.0938 14.5 23.3906 17.0139 24.4219L26.875 28.4531L27.3333 27.0312C30.0417 18.6562 34.1528 10.9375 39.4306 4.29688L39.9861 3.59375C40.8472 2.51563 41.8056 1.5625 42.8333 0.75C31.7778 1.14062 21.3472 7.34375 14.8889 17.625V17.6406Z" fill="white" fill-opacity="0.2"/>
</g>
<defs>
<clipPath id="clip0_84_208">
<rect width="80" height="80" fill="white"/>
</clipPath>
</defs>
</svg>
