<svg width="100" height="101" viewBox="0 0 100 101" fill="none" xmlns="http://www.w3.org/2000/svg">
<path d="M90.64 60.4328L89.32 59.1141C88.24 58.0252 86.47 58.0252 85.38 59.1141L79.91 64.5888H60.9C59.68 64.5888 58.67 65.5878 58.67 66.8166V76.4672H47.14V45.7272C49.01 43.4694 51.82 42.1107 54.86 42.1107C58.91 42.1107 62.58 44.5284 64.13 48.2747C65.7 44.5284 69.34 42.1107 73.4 42.1107C77.45 42.1107 81.12 44.5284 82.67 48.2747C82.67 28.3542 66.9 12.14 47.14 11.3208V8.14395C47.14 7.28479 46.45 6.59546 45.59 6.59546C44.73 6.59546 44.06 7.28479 44.06 8.14395V11.3208C24.31 12.13 8.52002 28.3442 8.52002 48.2647C10.09 44.5184 13.74 42.1008 17.79 42.1008C21.84 42.1008 25.51 44.5184 27.06 48.2647C28.63 44.5184 32.28 42.1008 36.33 42.1008C39.37 42.1008 42.18 43.4594 44.05 45.7172V76.4572H30.25C28.72 76.4572 27.47 77.7059 27.47 79.2345V81.0926C27.47 82.6211 28.72 83.8699 30.25 83.8699H37.56L32 90.3036C31.19 91.2327 31.3 92.6413 32.23 93.4506C32.65 93.8102 33.17 93.99 33.68 93.99C34.31 93.99 34.93 93.7303 35.37 93.2208L40.88 86.847H66.67L72.49 92.6613C73.36 93.5305 74.77 93.5305 75.64 92.6613C76.51 91.7922 76.51 90.3836 75.64 89.5044L70 83.9099H76.7C78.23 83.9099 79.48 82.6711 79.48 81.1326V79.2744C79.48 78.2554 78.93 77.3763 78.12 76.8967L90.64 64.389C91.73 63.2801 91.73 61.5218 90.64 60.4328ZM47.14 14.4578C47.14 14.4578 58.91 18.8735 64.12 42.82C61.71 40.4124 58.42 39.0138 54.85 39.0138C52 39.0138 49.33 39.9529 47.13 41.5613V14.4578H47.14ZM27.06 42.8101C24.65 40.4124 21.35 39.0138 17.79 39.0138C15.98 39.0138 14.23 39.3834 12.62 40.0528C16.18 25.7867 28.85 15.1471 44.05 14.4578C30.64 19.5928 27.06 42.8101 27.06 42.8101ZM68.18 76.4672H63.13V69.0444H75.44L68.18 76.4672Z" fill="#1a1a1a"/>
</svg>
