<svg width="124" height="88" viewBox="0 0 124 88" fill="none" xmlns="http://www.w3.org/2000/svg">
<path d="M93.1116 33.7408C89.0692 33.7408 85.2624 34.7948 81.9392 36.6176L75.764 27.5904L79.2856 12.946H66.4392V17.4224H73.6064L71.9944 24.1308H41.4284L43.8588 14.4464H51.77V9.96997H30.8884V14.4588H39.2584L34.3356 34.0384C33.2072 33.8648 32.0664 33.7532 30.8884 33.7532C18.1412 33.7532 7.75 44.132 7.75 56.8916C7.75 69.6388 18.1412 80.0176 30.8884 80.0176C43.648 80.0176 54.0268 69.6388 54.0268 56.8916C54.0268 46.86 47.616 38.3288 38.6756 35.1296L40.486 27.9252L65.3728 59.136H70.1096C71.238 70.854 81.1332 80.03 93.1364 80.03C105.896 80.03 116.275 69.6512 116.275 56.8916C116.25 44.1072 105.871 33.7408 93.1116 33.7408ZM49.538 56.8668C49.538 67.1464 41.1804 75.5164 30.8884 75.5164C20.6088 75.5164 12.2388 67.1464 12.2388 56.8668C12.2388 46.5748 20.6088 38.2048 30.8884 38.2048C31.6944 38.2048 32.4632 38.2792 33.232 38.366L28.7184 56.3088L33.0584 57.4L37.5596 39.4572C44.5532 42.1728 49.538 48.9308 49.538 56.8668ZM80.8108 42.8796L88.8584 54.6348H74.6108C75.1688 49.96 77.4628 45.8308 80.8108 42.8796ZM65.3232 51.8944L46.7728 28.6072H70.9156L65.3232 51.8944ZM69.2788 54.6348L74.3628 33.4556L78.2688 39.1596C73.7552 42.954 70.7048 48.4472 70.1096 54.6348H69.2788ZM93.1116 75.5288C83.576 75.5288 75.7144 68.3368 74.6108 59.0988H97.3648L84.4936 40.3376C87.0728 38.986 90.0116 38.2048 93.1116 38.2048C103.404 38.2048 111.761 46.5748 111.761 56.8668C111.774 67.1588 103.404 75.5288 93.1116 75.5288Z" fill="#1a1a1a"/>
</svg>
