<svg width="112" height="80" viewBox="0 0 112 80" fill="none" xmlns="http://www.w3.org/2000/svg">
<path d="M84.1008 30.6734C80.4496 30.6734 77.0112 31.6316 74.0096 33.2887L68.432 25.0821L71.6128 11.7691H60.0096V15.8385H66.4832L65.0272 21.9371H37.4192L39.6144 13.1331H46.76V9.0636H27.8992V13.1443H35.4592L31.0128 30.944C29.9936 30.7861 28.9632 30.6847 27.8992 30.6847C16.3856 30.6847 7 40.12 7 51.7196C7 63.308 16.3856 72.7432 27.8992 72.7432C39.424 72.7432 48.7984 63.308 48.7984 51.7196C48.7984 42.6 43.008 34.8443 34.9328 31.936L36.568 25.3865L59.0464 53.76H63.3248C64.344 64.4127 73.2816 72.7545 84.1232 72.7545C95.648 72.7545 105.022 63.3192 105.022 51.7196C105 40.0974 95.6256 30.6734 84.1008 30.6734ZM44.744 51.6971C44.744 61.0421 37.1952 68.6512 27.8992 68.6512C18.6144 68.6512 11.0544 61.0421 11.0544 51.6971C11.0544 42.3407 18.6144 34.7316 27.8992 34.7316C28.6272 34.7316 29.3216 34.7992 30.016 34.8781L25.9392 51.1898L29.8592 52.1818L33.9248 35.8701C40.2416 38.3389 44.744 44.4825 44.744 51.6971ZM72.9904 38.9814L80.2592 49.668H67.3904C67.8944 45.4181 69.9664 41.6643 72.9904 38.9814ZM59.0016 47.1767L42.2464 26.0065H64.0528L59.0016 47.1767ZM62.5744 49.668L67.1664 30.4141L70.6944 35.5996C66.6176 39.0491 63.8624 44.0429 63.3248 49.668H62.5744ZM84.1008 68.6625C75.488 68.6625 68.3872 62.1243 67.3904 53.7261H87.9424L76.3168 36.6705C78.6464 35.4418 81.3008 34.7316 84.1008 34.7316C93.3968 34.7316 100.946 42.3407 100.946 51.6971C100.957 61.0534 93.3968 68.6625 84.1008 68.6625Z" fill="white" fill-opacity="0.2"/>
</svg>
