<svg width="80" height="80" viewBox="0 0 80 80" fill="none" xmlns="http://www.w3.org/2000/svg">
<path d="M5.008 49.4639C5.008 43.8959 4.976 38.3199 5.04 32.7519C5.056 31.7279 5.336 30.6479 5.728 29.6959C9.584 20.2559 16.4 13.9359 26.048 10.6559C26.408 10.5359 26.912 10.6239 27.28 10.7839C37.904 15.4479 48.512 20.1359 59.12 24.8079C64.2 27.0479 69.28 29.2959 74.368 31.5199C74.848 31.7279 75.008 31.9759 75 32.4959C74.968 34.8239 74.968 37.1599 75 39.4879C75.008 39.9919 74.84 40.2079 74.384 40.3679C73.056 40.8319 71.84 41.5199 70.848 42.5439C69.12 44.3199 69.072 46.6959 70.736 48.5279C71.736 49.6239 72.992 50.3279 74.376 50.8239C74.824 50.9839 75.008 51.1839 75.008 51.6959C74.976 54.8799 75 58.0719 74.992 61.2559C74.984 63.0079 73.816 64.1999 72.064 64.3359L54.96 65.6959L42.032 66.6799C37.08 67.0719 32.128 67.4879 27.176 67.8719C22.224 68.2639 17.272 68.6319 12.312 69.0079C10.84 69.1199 9.368 69.2319 7.896 69.3519C6.16 69.4959 5.008 68.4639 5.008 66.7119V49.4639ZM28.712 16.1119C28.056 15.8239 27.408 15.5359 26.76 15.2639C26.512 15.1599 26.144 15.1679 25.888 15.2719C20.024 17.5839 15.368 21.3679 12 26.7119C11.928 26.8239 11.864 26.9439 11.8 27.0639C11.696 27.2639 14.92 27.4239 19.008 27.4239H46.952C51.04 27.4239 53.968 27.2559 53.496 27.0479C53.192 26.9119 52.92 26.7919 52.648 26.6719C48.368 24.7839 44.096 22.8959 39.816 21.0159C39.584 20.9119 39.192 20.8159 39.056 20.9359C37.912 21.9039 36.56 22.2799 35.128 22.4239C33.128 22.6239 31.192 22.3839 29.496 21.1759C28.152 20.1999 28.144 18.7679 29.456 17.7519C29.64 17.6079 29.832 17.4879 30.048 17.3519C30.384 17.1439 29.784 16.5919 28.712 16.1119ZM38.424 58.6239C38.416 62.3519 41.272 65.2719 44.936 65.2799C48.544 65.2879 51.48 62.3679 51.496 58.7279C51.52 55.0719 48.568 52.0559 44.96 52.0479C41.376 52.0399 38.432 54.9999 38.424 58.6239ZM23.664 47.8559C24 47.8079 24.328 47.7599 24.648 47.6719C29.136 46.5199 30.84 41.4079 27.84 38.1119C25.304 35.3199 20.56 35.1839 17.848 37.8319C16.416 39.2319 15.752 40.9119 16.136 42.8959C16.432 44.4239 17.28 45.7039 18.472 46.5919C20.464 48.0799 23.112 47.9279 23.664 47.8559ZM48.952 31.8159H45.144C43.448 31.8159 43.224 32.0319 43.128 33.7759V33.9279C43.072 36.9439 45.552 39.4079 48.784 39.5279C52.704 39.6799 55.664 36.0959 54.584 32.5279C54.432 32.0159 54.208 31.7759 53.616 31.7919C52.064 31.8479 50.504 31.8159 48.952 31.8159ZM60.84 48.7519C58.6 48.7519 56.816 50.4159 56.816 52.5039C56.824 54.5919 58.616 56.2719 60.848 56.2639C63.056 56.2559 64.896 54.5119 64.856 52.4559C64.808 50.3919 63.032 48.7519 60.84 48.7519ZM40.152 46.1999C40.152 44.1199 38.344 42.4159 36.128 42.4319C33.952 42.4399 32.184 44.1119 32.16 46.1839C32.136 48.2639 33.952 50.0079 36.144 50.0079C38.36 49.9999 40.152 48.2959 40.152 46.1999ZM17.68 54.0559C15.408 54.0399 13.656 55.6399 13.632 57.7679C13.608 59.8319 15.36 61.5279 17.544 61.5519C19.816 61.5759 21.656 59.8959 21.648 57.7919C21.632 55.7279 19.872 54.0639 17.68 54.0559Z" fill="white" fill-opacity="0.2"/>
</svg>
