<svg width="100" height="100" viewBox="0 0 100 100" fill="none" xmlns="http://www.w3.org/2000/svg">
<path d="M6.26 61.8299C6.26 54.8699 6.22 47.8999 6.3 40.9399C6.32 39.6599 6.67 38.3099 7.16 37.1199C11.98 25.3199 20.5 17.4199 32.56 13.3199C33.01 13.1699 33.64 13.2799 34.1 13.4799C47.38 19.3099 60.64 25.1699 73.9 31.0099C80.25 33.8099 86.6 36.6199 92.96 39.3999C93.56 39.6599 93.76 39.9699 93.75 40.6199C93.71 43.5299 93.71 46.4499 93.75 49.3599C93.76 49.9899 93.55 50.2599 92.98 50.4599C91.32 51.0399 89.8 51.8999 88.56 53.1799C86.4 55.3999 86.34 58.3699 88.42 60.6599C89.67 62.0299 91.24 62.9099 92.97 63.5299C93.53 63.7299 93.76 63.9799 93.76 64.6199C93.72 68.5999 93.75 72.5899 93.74 76.5699C93.73 78.7599 92.27 80.2499 90.08 80.4199L68.7 82.1199L52.54 83.3499C46.35 83.8399 40.16 84.3599 33.97 84.84C27.78 85.3299 21.59 85.7899 15.39 86.2599C13.55 86.3999 11.71 86.5399 9.87 86.6899C7.7 86.8699 6.26 85.5799 6.26 83.3899V61.8299ZM35.89 20.1399C35.07 19.7799 34.26 19.4199 33.45 19.0799C33.14 18.9499 32.68 18.9599 32.36 19.0899C25.03 21.9799 19.21 26.7099 15 33.3899C14.91 33.5299 14.83 33.6799 14.75 33.8299C14.62 34.0799 18.65 34.2799 23.76 34.2799H58.69C63.8 34.2799 67.46 34.0699 66.87 33.8099C66.49 33.6399 66.15 33.4899 65.81 33.3399C60.46 30.9799 55.12 28.6199 49.77 26.2699C49.48 26.1399 48.99 26.0199 48.82 26.1699C47.39 27.3799 45.7 27.8499 43.91 28.0299C41.41 28.2799 38.99 27.9799 36.87 26.4699C35.19 25.2499 35.18 23.4599 36.82 22.1899C37.05 22.0099 37.29 21.8599 37.56 21.6899C37.98 21.4299 37.23 20.7399 35.89 20.1399ZM48.03 73.2799C48.02 77.9399 51.59 81.5899 56.17 81.5999C60.68 81.6099 64.35 77.9599 64.37 73.4099C64.4 68.8399 60.71 65.0699 56.2 65.0599C51.72 65.0499 48.04 68.7499 48.03 73.2799ZM29.58 59.8199C30 59.7599 30.41 59.6999 30.81 59.5899C36.42 58.1499 38.55 51.7599 34.8 47.6399C31.63 44.1499 25.7 43.9799 22.31 47.2899C20.52 49.0399 19.69 51.1399 20.17 53.6199C20.54 55.5299 21.6 57.1299 23.09 58.2399C25.58 60.0999 28.89 59.9099 29.58 59.8199ZM61.19 39.7699H56.43C54.31 39.7699 54.03 40.0399 53.91 42.2199V42.4099C53.84 46.1799 56.94 49.2599 60.98 49.4099C65.88 49.5999 69.58 45.1199 68.23 40.6599C68.04 40.0199 67.76 39.7199 67.02 39.7399C65.08 39.8099 63.13 39.7699 61.19 39.7699ZM76.05 60.9399C73.25 60.9399 71.02 63.0199 71.02 65.6299C71.03 68.2399 73.27 70.3399 76.06 70.3299C78.82 70.3199 81.12 68.1399 81.07 65.5699C81.01 62.9899 78.79 60.9399 76.05 60.9399ZM50.19 57.7499C50.19 55.1499 47.93 53.0199 45.16 53.0399C42.44 53.0499 40.23 55.1399 40.2 57.7299C40.17 60.3299 42.44 62.5099 45.18 62.5099C47.95 62.4999 50.19 60.3699 50.19 57.7499ZM22.1 67.5699C19.26 67.5499 17.07 69.5499 17.04 72.2099C17.01 74.7899 19.2 76.91 21.93 76.9399C24.77 76.9699 27.07 74.8699 27.06 72.2399C27.04 69.66 24.84 67.5799 22.1 67.5699Z" fill="#1a1a1a"/>
</svg>
