<svg width="25" height="25" viewBox="0 0 25 25" fill="none" xmlns="http://www.w3.org/2000/svg">
<g clip-path="url(#clip0_82_188)">
<path d="M25 10.249C22.5424 10.2536 20.1452 9.58236 18.1473 8.33008V17.0605C18.1468 18.6775 17.582 20.2557 16.5285 21.5842C15.4751 22.9126 13.9832 23.928 12.2524 24.4944C10.5216 25.0609 8.63437 25.1514 6.84316 24.7539C5.05195 24.3564 3.44213 23.4899 2.22901 22.2702C1.01589 21.0505 0.257307 19.5357 0.0547068 17.9285C-0.147893 16.3214 0.215153 14.6984 1.09529 13.2766C1.97543 11.8549 3.3307 10.7022 4.97984 9.97265C6.62898 9.24313 8.49337 8.97159 10.3237 9.19433V13.584C9.48676 13.3535 8.58801 13.3602 7.75575 13.6033C6.92348 13.8463 6.20026 14.3132 5.68934 14.9374C5.17842 15.5615 4.90594 16.3109 4.91079 17.0786C4.91564 17.8463 5.19758 18.5931 5.71635 19.2122C6.23512 19.8314 6.9642 20.2913 7.79949 20.5262C8.63477 20.7612 9.53355 20.7593 10.3675 20.5207C11.2014 20.2821 11.9279 19.819 12.4432 19.1976C12.9584 18.5762 13.2361 17.8283 13.2366 17.0605V0H18.1473C18.1446 0.36341 18.1801 0.726271 18.2534 1.08398C18.4241 1.88135 18.7789 2.63987 19.2961 3.31318C19.8133 3.98649 20.4819 4.56046 21.2612 5C22.3704 5.64104 23.6707 5.98236 25 5.98144V10.249Z" fill="currentColor"/>
</g>
<defs>
<clipPath id="clip0_82_188">
<rect width="25" height="25" fill="white"/>
</clipPath>
</defs>
</svg>
