<svg width="18" height="18" viewBox="0 0 18 18" fill="none" xmlns="http://www.w3.org/2000/svg">
<g clip-path="url(#clip0_80_614)">
<path d="M18 7.3793C16.2305 7.38261 14.5046 6.8993 13.0661 5.99766V12.2836C13.0657 13.4478 12.659 14.5841 11.9005 15.5406C11.1421 16.4971 10.0679 17.2281 8.82172 17.636C7.57554 18.0438 6.21675 18.109 4.92707 17.8228C3.6374 17.5366 2.47834 16.9127 1.60489 16.0345C0.731443 15.1563 0.185261 14.0657 0.0393889 12.9086C-0.106483 11.7514 0.15491 10.5828 0.788609 9.55918C1.42231 8.53552 2.3981 7.70556 3.58548 7.18031C4.77287 6.65505 6.11523 6.45954 7.43304 6.61992V9.78047C6.83047 9.61449 6.18337 9.61935 5.58414 9.79434C4.98491 9.96934 4.46419 10.3055 4.09633 10.7549C3.72846 11.2043 3.53227 11.7439 3.53577 12.2966C3.53926 12.8493 3.74225 13.387 4.11577 13.8328C4.48929 14.2786 5.01423 14.6097 5.61563 14.7789C6.21703 14.9481 6.86416 14.9467 7.46459 14.7749C8.06503 14.6031 8.58809 14.2697 8.95907 13.8223C9.33006 13.3749 9.53 12.8364 9.53036 12.2836V0H13.0661C13.0641 0.261655 13.0896 0.522915 13.1424 0.780469C13.2654 1.35457 13.5208 1.9007 13.8932 2.38549C14.2656 2.87028 14.747 3.28353 15.308 3.6C16.1067 4.06155 17.0429 4.3073 18 4.30664V7.3793Z" fill="currentColor"/>
</g>
<defs>
<clipPath id="clip0_80_614">
<rect width="18" height="18" fill="white"/>
</clipPath>
</defs>
</svg>
