<svg width="25" height="25" viewBox="0 0 25 25" fill="none" xmlns="http://www.w3.org/2000/svg">
<g clip-path="url(#clip0_82_192)">
<path d="M6.25757 10.9283C4.52484 10.9283 3.12402 12.3292 3.12402 14.057C3.12402 15.7848 4.52484 17.1857 6.25268 17.1857C7.98053 17.1857 9.38135 15.7848 9.38135 14.057C9.38623 12.3292 7.98541 10.9283 6.25757 10.9283ZM6.25757 16.2973C5.0227 16.2973 4.01723 15.2968 4.01723 14.057C4.01723 12.8173 5.01781 11.8167 6.25757 11.8167C7.49732 11.8167 8.49302 12.8221 8.49302 14.057C8.49302 15.2919 7.49243 16.2973 6.25757 16.2973Z" fill="currentColor"/>
<path d="M6.26697 15.6091C7.12688 15.6091 7.82398 14.912 7.82398 14.0521C7.82398 13.1922 7.12688 12.4951 6.26697 12.4951C5.40706 12.4951 4.70996 13.1922 4.70996 14.0521C4.70996 14.912 5.40706 15.6091 6.26697 15.6091Z" fill="currentColor"/>
<path d="M18.7527 10.9283C17.0248 10.9283 15.624 12.3292 15.624 14.057C15.624 15.7848 17.0248 17.1857 18.7527 17.1857C20.4805 17.1857 21.8813 15.7848 21.8813 14.057C21.8813 12.3292 20.4805 10.9283 18.7527 10.9283ZM18.7527 16.2973C17.5178 16.2973 16.5123 15.2968 16.5123 14.057C16.5123 12.8173 17.5129 11.8167 18.7527 11.8167C19.9924 11.8167 20.9881 12.8221 20.9881 14.057C20.9881 15.2919 19.9876 16.2973 18.7527 16.2973Z" fill="currentColor"/>
<path d="M18.7621 15.6091C19.622 15.6091 20.3191 14.912 20.3191 14.0521C20.3191 13.1922 19.622 12.4951 18.7621 12.4951C17.9022 12.4951 17.2051 13.1922 17.2051 14.0521C17.2051 14.912 17.9022 15.6091 18.7621 15.6091Z" fill="currentColor"/>
<path d="M23.155 9.62515L24.9951 7.79969H21.2661C19.1771 6.10113 15.7068 4.68567 12.4902 4.68567C9.26884 4.68567 5.8278 6.10113 3.73877 7.79969H0L1.8401 9.62515C0.702851 10.7575 0 12.3243 0 14.057C0 17.5127 2.80164 20.3143 6.25732 20.3143C7.84362 20.3143 9.29325 19.7237 10.3963 18.7476L12.5146 20.3046L14.6086 18.7817L14.5841 18.7232C15.6921 19.7091 17.1466 20.3094 18.7476 20.3094C22.2032 20.3094 25.0049 17.5078 25.0049 14.0521C25 12.3243 24.2923 10.7575 23.155 9.62515ZM17.9617 7.8485C14.999 8.21944 12.6757 10.6599 12.5 13.6812C12.3194 10.655 9.99122 8.20968 7.01874 7.8485C8.5123 6.7747 10.4159 6.24756 12.4902 6.24756C14.5646 6.24756 16.4682 6.7747 17.9617 7.8485ZM6.25732 18.7524C3.66068 18.7524 1.56189 16.6488 1.56189 14.057C1.56189 11.4652 3.66556 9.36158 6.25732 9.36158C8.84908 9.36158 10.9528 11.4652 10.9528 14.057C10.9479 16.6488 8.84908 18.7524 6.25732 18.7524ZM18.7524 18.7524C16.1607 18.7524 14.057 16.6488 14.057 14.057C14.057 11.4652 16.1607 9.36158 18.7524 9.36158C21.3442 9.36158 23.4479 11.4652 23.4479 14.057C23.443 16.6488 21.3442 18.7524 18.7524 18.7524Z" fill="currentColor"/>
</g>
<defs>
<clipPath id="clip0_82_192">
<rect width="25" height="25" fill="white"/>
</clipPath>
</defs>
</svg>
