<svg width="18" height="18" viewBox="0 0 18 18" fill="none" xmlns="http://www.w3.org/2000/svg">
<g clip-path="url(#clip0_80_618)">
<path d="M4.5053 7.86841C3.25774 7.86841 2.24915 8.877 2.24915 10.121C2.24915 11.3651 3.25774 12.3737 4.50178 12.3737C5.74583 12.3737 6.75442 11.3651 6.75442 10.121C6.75793 8.877 5.74934 7.86841 4.5053 7.86841ZM4.5053 11.7341C3.61619 11.7341 2.89225 11.0137 2.89225 10.121C2.89225 9.22842 3.61268 8.508 4.5053 8.508C5.39792 8.508 6.11482 9.23194 6.11482 10.121C6.11482 11.0101 5.3944 11.7341 4.5053 11.7341Z" fill="currentColor"/>
<path d="M4.51228 11.2386C5.13142 11.2386 5.63333 10.7367 5.63333 10.1175C5.63333 9.4984 5.13142 8.99649 4.51228 8.99649C3.89314 8.99649 3.39124 9.4984 3.39124 10.1175C3.39124 10.7367 3.89314 11.2386 4.51228 11.2386Z" fill="currentColor"/>
<path d="M13.5018 7.86841C12.2577 7.86841 11.2491 8.877 11.2491 10.121C11.2491 11.3651 12.2577 12.3737 13.5018 12.3737C14.7458 12.3737 15.7544 11.3651 15.7544 10.121C15.7544 8.877 14.7458 7.86841 13.5018 7.86841ZM13.5018 11.7341C12.6127 11.7341 11.8887 11.0137 11.8887 10.121C11.8887 9.22842 12.6092 8.508 13.5018 8.508C14.3944 8.508 15.1113 9.23194 15.1113 10.121C15.1113 11.0101 14.3909 11.7341 13.5018 11.7341Z" fill="currentColor"/>
<path d="M13.5088 11.2386C14.1279 11.2386 14.6298 10.7367 14.6298 10.1175C14.6298 9.4984 14.1279 8.99649 13.5088 8.99649C12.8897 8.99649 12.3878 9.4984 12.3878 10.1175C12.3878 10.7367 12.8897 11.2386 13.5088 11.2386Z" fill="currentColor"/>
<path d="M16.6716 6.93011L17.9965 5.61578H15.3116C13.8075 4.39282 11.3089 3.37369 8.99297 3.37369C6.67357 3.37369 4.19602 4.39282 2.69192 5.61578H0L1.32487 6.93011C0.506052 7.74542 0 8.87349 0 10.1211C0 12.6091 2.01718 14.6263 4.50527 14.6263C5.6474 14.6263 6.69114 14.2011 7.48536 13.4982L9.01054 14.6193L10.5182 13.5228L10.5006 13.4807C11.2983 14.1906 12.3456 14.6228 13.4982 14.6228C15.9863 14.6228 18.0035 12.6056 18.0035 10.1175C18 8.87349 17.4904 7.74542 16.6716 6.93011ZM12.9324 5.65092C10.7993 5.91801 9.12651 7.67513 9 9.85045C8.86997 7.67162 7.19368 5.91098 5.0535 5.65092C6.12886 4.87779 7.49942 4.49825 8.99297 4.49825C10.4865 4.49825 11.8571 4.87779 12.9324 5.65092ZM4.50527 13.5018C2.63569 13.5018 1.12456 11.9871 1.12456 10.1211C1.12456 8.25498 2.6392 6.74034 4.50527 6.74034C6.37134 6.74034 7.88598 8.25498 7.88598 10.1211C7.88247 11.9871 6.37134 13.5018 4.50527 13.5018ZM13.5018 13.5018C11.6357 13.5018 10.121 11.9871 10.121 10.1211C10.121 8.25498 11.6357 6.74034 13.5018 6.74034C15.3678 6.74034 16.8825 8.25498 16.8825 10.1211C16.879 11.9871 15.3678 13.5018 13.5018 13.5018Z" fill="currentColor"/>
</g>
<defs>
<clipPath id="clip0_80_618">
<rect width="18" height="18" fill="white"/>
</clipPath>
</defs>
</svg>
