<svg width="80" height="80" viewBox="0 0 80 80" fill="none" xmlns="http://www.w3.org/2000/svg">
<g clip-path="url(#clip0_84_212)">
<path d="M41.7778 74C43.25 75.25 45.25 75.3281 46.8195 74.2344C48.3889 73.1406 49.1667 71.0469 48.8056 69.0156L47.4583 61.4219C50.1528 60.0156 52.5833 58.3125 54.7361 56.5C56.8611 54.7031 58.7639 52.7656 60.3889 50.8281L73.3195 59.3125C75.0556 60.4531 77.2639 60.1406 78.6806 58.5469C80.0972 56.9531 80.4167 54.4844 79.4167 52.5156L73.0556 40L79.4167 27.4844C80.4167 25.5156 80.1111 23.0469 78.6806 21.4531C77.25 19.8594 75.0556 19.5469 73.3195 20.6875L60.3889 29.1719C58.75 27.25 56.8611 25.2969 54.7361 23.5C52.5833 21.6875 50.1528 19.9844 47.4583 18.5781L48.8056 10.9844C49.1667 8.95312 48.375 6.875 46.8195 5.78125C45.2639 4.6875 43.2639 4.76562 41.7778 6.01562L31 15.1094C23.375 15.7344 16.9028 19.3281 11.9445 23.5156C6.50001 28.1094 2.61112 33.625 0.611122 37.5C-0.194427 39.0469 -0.194427 40.9688 0.611122 42.5156C2.61112 46.3906 6.5139 51.9063 11.9445 56.5C16.9167 60.6875 23.375 64.2812 31 64.9062L41.7778 74ZM26.6667 40C26.6667 41.3261 26.1984 42.5979 25.3649 43.5355C24.5314 44.4732 23.401 45 22.2222 45C21.0435 45 19.913 44.4732 19.0795 43.5355C18.246 42.5979 17.7778 41.3261 17.7778 40C17.7778 38.6739 18.246 37.4021 19.0795 36.4645C19.913 35.5268 21.0435 35 22.2222 35C23.401 35 24.5314 35.5268 25.3649 36.4645C26.1984 37.4021 26.6667 38.6739 26.6667 40Z" fill="white" fill-opacity="0.2"/>
</g>
<defs>
<clipPath id="clip0_84_212">
<rect width="80" height="80" fill="white" transform="matrix(-1 0 0 -1 80 80)"/>
</clipPath>
</defs>
</svg>
