<svg width="60" height="60" viewBox="0 0 60 60" fill="none" xmlns="http://www.w3.org/2000/svg">
<path d="M5.08128 23.7773C11.55 16.0195 20.325 11.25 30 11.25C39.675 11.25 48.45 16.0195 54.9188 23.7773C56.1188 25.207 58.0125 25.1602 59.1563 23.6719C60.3 22.1836 60.2625 19.8047 59.0719 18.375C51.5344 9.31641 41.2875 3.75 30 3.75C18.7125 3.75 8.46566 9.31641 0.918785 18.3633C-0.27184 19.8047 -0.30934 22.1719 0.83441 23.6719C1.97816 25.1719 3.88128 25.2188 5.07191 23.7773H5.08128ZM30 30C35.325 30 40.1813 32.4727 43.8938 36.5625C45.1407 37.9336 47.0344 37.7812 48.1313 36.2344C49.2282 34.6875 49.1063 32.3086 47.8688 30.9375C43.1063 25.6875 36.8438 22.5 30 22.5C23.1563 22.5 16.8938 25.6875 12.1407 30.9375C10.8938 32.3086 10.7813 34.6758 11.8782 36.2344C12.975 37.793 14.8688 37.9336 16.1157 36.5625C19.8188 32.4727 24.675 30 30.0094 30H30ZM36 48.75C36 46.7609 35.3679 44.8532 34.2427 43.4467C33.1175 42.0402 31.5913 41.25 30 41.25C28.4087 41.25 26.8826 42.0402 25.7574 43.4467C24.6322 44.8532 24 46.7609 24 48.75C24 50.7391 24.6322 52.6468 25.7574 54.0533C26.8826 55.4598 28.4087 56.25 30 56.25C31.5913 56.25 33.1175 55.4598 34.2427 54.0533C35.3679 52.6468 36 50.7391 36 48.75Z" fill="#0F2F2A"/>
</svg>
