<svg width="25" height="25" viewBox="0 0 25 25" fill="none" xmlns="http://www.w3.org/2000/svg">
<path d="M23.8583 6.05957C23.5849 4.90234 22.7819 3.99414 21.7619 3.68652C19.913 3.125 12.4998 3.125 12.4998 3.125C12.4998 3.125 5.08659 3.125 3.23763 3.68652C2.21766 3.99414 1.41471 4.90234 1.14128 6.05957C0.646484 8.1543 0.646484 12.5195 0.646484 12.5195C0.646484 12.5195 0.646484 16.8848 1.14128 18.9795C1.41471 20.1367 2.21766 21.0059 3.23763 21.3135C5.08659 21.875 12.4998 21.875 12.4998 21.875C12.4998 21.875 19.913 21.875 21.7619 21.3135C22.7819 21.0059 23.5849 20.1318 23.8583 18.9795C24.3531 16.8848 24.3531 12.5195 24.3531 12.5195C24.3531 12.5195 24.3531 8.1543 23.8583 6.05957ZM10.0779 16.4844V8.55469L16.2715 12.5195L10.0779 16.4844Z" fill="currentColor"/>
</svg>
