<svg width="18" height="18" viewBox="0 0 18 18" fill="none" xmlns="http://www.w3.org/2000/svg">
<path d="M17.1781 4.36289C16.9813 3.52969 16.4031 2.87578 15.6688 2.6543C14.3375 2.25 9.00001 2.25 9.00001 2.25C9.00001 2.25 3.66251 2.25 2.33126 2.6543C1.59689 2.87578 1.01876 3.52969 0.821887 4.36289C0.465637 5.87109 0.465637 9.01406 0.465637 9.01406C0.465637 9.01406 0.465637 12.157 0.821887 13.6652C1.01876 14.4984 1.59689 15.1242 2.33126 15.3457C3.66251 15.75 9.00001 15.75 9.00001 15.75C9.00001 15.75 14.3375 15.75 15.6688 15.3457C16.4031 15.1242 16.9813 14.4949 17.1781 13.6652C17.5344 12.157 17.5344 9.01406 17.5344 9.01406C17.5344 9.01406 17.5344 5.87109 17.1781 4.36289ZM7.25626 11.8688V6.15937L11.7156 9.01406L7.25626 11.8688Z" fill="currentColor"/>
</svg>
